<?xml version="1.0" encoding="iso-8859-1"?>
<!-- Generator: Adobe Illustrator 19.0.0, SVG Export Plug-In . SVG Version: 6.00 Build 0)  -->
<svg version="1.1" id="Capa_1" xmlns="http://www.w3.org/2000/svg" xmlns:xlink="http://www.w3.org/1999/xlink" x="0px" y="0px"
	 viewBox="0 0 512 512" style="enable-background:new 0 0 512 512;" xml:space="preserve">
<path style="fill:#A6E6FD;" d="M500,451.208H12c-6.6,0-12-5.4-12-12V100.932c0-6.6,5.4-12,12-12h488c6.6,0,12,5.4,12,12v338.276
	C512,445.808,506.6,451.208,500,451.208z"/>
<path style="fill:#8CD9ED;" d="M512,101.291v337.558c0,6.797-5.562,12.359-12.359,12.359h-46.747
	c6.797,0,12.359-5.561,12.359-12.359V101.291c0-6.797-5.561-12.359-12.359-12.359h46.747C506.438,88.932,512,94.494,512,101.291z"/>
<path style="fill:#1DC6DD;" d="M127.264,88.928v362.284H12.359C5.562,451.212,0,445.651,0,438.854V101.287
	c0-6.797,5.561-12.359,12.359-12.359H127.264z"/>
<path style="fill:#E7EBEC;" d="M80.154,130.971v57.544c0,3.763-3.079,6.842-6.842,6.842H54.04c-3.763,0-6.842-3.079-6.842-6.842
	v-57.544c0-3.763,3.079-6.842,6.842-6.842h19.272C77.075,124.129,80.154,127.208,80.154,130.971z"/>
<circle style="fill:#FC3A4D;" cx="63.68" cy="243.63" r="14.418"/>
<path style="fill:#1DC6DD;" d="M93.168,88.932H36.524V76.479c0-8.666,7.025-15.691,15.691-15.691h25.261
	c8.666,0,15.691,7.025,15.691,15.691L93.168,88.932L93.168,88.932z"/>
<circle style="fill:#6B888D;" cx="315.87" cy="288.07" r="114.32"/>
<circle style="fill:#E7EBEC;" cx="315.86" cy="288.07" r="78.5"/>
<path style="fill:#CDD7D9;" d="M394.366,288.068c0,43.358-35.14,78.509-78.498,78.509c-30.917,0-57.663-17.869-70.455-43.853
	c12.647,8.723,27.982,13.831,44.501,13.831c43.358,0,78.508-35.15,78.508-78.509c0-12.441-2.894-24.202-8.054-34.656
	C380.905,237.552,394.366,261.229,394.366,288.068z"/>
<circle style="fill:#FC3A4D;" cx="430.18" cy="173.75" r="14.418"/>
<g>
</g>
<g>
</g>
<g>
</g>
<g>
</g>
<g>
</g>
<g>
</g>
<g>
</g>
<g>
</g>
<g>
</g>
<g>
</g>
<g>
</g>
<g>
</g>
<g>
</g>
<g>
</g>
<g>
</g>
</svg>
