<svg id="color" enable-background="new 0 0 24 24" height="512" viewBox="0 0 24 24" width="512" xmlns="http://www.w3.org/2000/svg"><path d="m20 21.64c-.176 0-.353-.061-.495-.187l-4.33-3.81c-.312-.273-.342-.748-.068-1.059.274-.312.748-.341 1.059-.067l4.33 3.81c.312.273.342.748.068 1.059-.149.168-.356.254-.564.254z" fill="#607d8b"/><path d="m21 24c-1.103 0-2-.897-2-2s.897-2 2-2 2 .897 2 2-.897 2-2 2z" fill="#03a9f4"/><path d="m15.106 16.584c-.273.311-.243.785.068 1.059l4.006 3.525c.105-.228.251-.433.429-.605z" fill="#546d79"/><path d="m19.61 20.563c-.178.172-.324.377-.429.605-.116.254-.181.535-.181.832 0 1.103.897 2 2 2 .65 0 1.228-.312 1.594-.793l.001-.006z" fill="#0393d4"/><path d="m16.5 10.6c-.208 0-.414-.086-.563-.254-.274-.311-.244-.785.066-1.059l4.564-4.025c.311-.273.784-.244 1.059.066.274.311.244.785-.066 1.059l-4.564 4.025c-.142.127-.319.188-.496.188z" fill="#607d8b"/><path d="m22 7c-1.103 0-2-.897-2-2s.897-2 2-2 2 .897 2 2-.897 2-2 2z" fill="#03a9f4"/><path d="m20.113 5.664-4.109 3.624c-.311.274-.341.748-.066 1.059l4.656-3.926c-.214-.211-.379-.469-.481-.757z" fill="#546d79"/><path d="m22 3c-1.103 0-2 .897-2 2 0 .233.04.456.113.664.102.288.267.546.48.756l3.043-2.566-.001-.005c-.362-.513-.96-.849-1.635-.849z" fill="#0393d4"/><path d="m3.11 21.75c-.205 0-.409-.083-.558-.248-.277-.308-.252-.782.056-1.06l4.81-4.33c.308-.278.781-.253 1.06.056.277.308.252.782-.056 1.06l-4.81 4.33c-.143.129-.323.192-.502.192z" fill="#607d8b"/><path d="m2 24c-1.103 0-2-.897-2-2s.897-2 2-2 2 .897 2 2-.897 2-2 2z" fill="#03a9f4"/><path d="m8.478 16.168-5.014 4.47c.181.194.324.425.416.679l4.542-4.089c.307-.278.333-.752.056-1.06z" fill="#546d79"/><path d="m3.463 20.638-2.98 2.657.013.023c.367.418.905.682 1.504.682 1.103 0 2-.897 2-2 0-.24-.042-.47-.12-.683-.093-.254-.236-.485-.417-.679z" fill="#0393d4"/><path d="m7.289 10.93c-.131 0-.265-.035-.386-.107l-4.221-2.538c-.354-.213-.47-.674-.256-1.029.212-.355.671-.471 1.029-.256l4.222 2.538c.354.213.47.674.256 1.029-.141.234-.389.363-.644.363z" fill="#607d8b"/><path d="m2 9c-1.103 0-2-.897-2-2s.897-2 2-2 2 .897 2 2-.897 2-2 2z" fill="#03a9f4"/><path d="m3.678 8.086c-.128.197-.29.37-.477.511l3.702 2.225c.121.073.255.107.386.107.255 0 .503-.129.644-.364z" fill="#546d79"/><path d="m.227 6.076c-.145.277-.227.591-.227.924 0 1.103.897 2 2 2 .451 0 .867-.15 1.202-.402.187-.141.349-.314.477-.511l-3.447-2.009z" fill="#0393d4"/><path d="m12 8.25c-.414 0-.75-.336-.75-.75v-4c0-.414.336-.75.75-.75s.75.336.75.75v4c0 .414-.336.75-.75.75z" fill="#607d8b"/><path d="m12 19c-3.309 0-6-2.691-6-6s2.691-6 6-6 6 2.691 6 6-2.691 6-6 6z" fill="#ffc107"/><g fill="#fafafa"><path d="m12 17c-.414 0-.75-.336-.75-.75v-.75c0-.414.336-.75.75-.75s.75.336.75.75v.75c0 .414-.336.75-.75.75z"/><path d="m12 11.25c-.414 0-.75-.336-.75-.75v-.75c0-.414.336-.75.75-.75s.75.336.75.75v.75c0 .414-.336.75-.75.75z"/><path d="m12.125 16h-1.375c-.414 0-.75-.336-.75-.75s.336-.75.75-.75h1.375c.207 0 .375-.168.375-.375s-.168-.375-.375-.375h-.25c-1.034 0-1.875-.841-1.875-1.875s.841-1.875 1.875-1.875h1.375c.414 0 .75.336.75.75s-.336.75-.75.75h-1.375c-.207 0-.375.168-.375.375s.168.375.375.375h.25c1.034 0 1.875.841 1.875 1.875s-.841 1.875-1.875 1.875z"/></g><path d="m12 4c-1.103 0-2-.897-2-2s.897-2 2-2 2 .897 2 2-.897 2-2 2z" fill="#03a9f4"/><path d="m11.25 3.854v3.193c.246-.031.496-.047.75-.047v-3c-.265 0-.518-.052-.75-.146z" fill="#546d79"/><path d="m12 7c-.254 0-.504.016-.75.047-2.956.37-5.25 2.898-5.25 5.953 0 3.309 2.691 6 6 6v-2c-.414 0-.75-.336-.75-.75v-.25h-.5c-.414 0-.75-.336-.75-.75s.336-.75.75-.75h1.25v-.75h-.125c-1.034 0-1.875-.841-1.875-1.875 0-.815.522-1.51 1.25-1.768v-.357c0-.414.336-.75.75-.75z" fill="#dea806"/><path d="m12 16h-.75v.25c0 .414.336.75.75.75z" fill="#dadada"/><path d="m12 9c-.414 0-.75.336-.75.75v.357c.196-.069.406-.107.625-.107h.125z" fill="#dadada"/><path d="m12 11.5h-.125c-.207 0-.375.168-.375.375s.168.375.375.375h.125z" fill="#dea806"/><path d="m12 14.5h-1.25c-.414 0-.75.336-.75.75s.336.75.75.75h.5.75zm0-4.5h-.125c-.219 0-.429.038-.625.107-.728.258-1.25.953-1.25 1.768 0 1.034.841 1.875 1.875 1.875h.125v-1.5h-.125c-.207 0-.375-.168-.375-.375s.168-.375.375-.375h.125z" fill="#dadada"/><path d="m12 0c-1.103 0-2 .897-2 2 0 .838.518 1.557 1.25 1.854.232.094.485.146.75.146z" fill="#0393d4"/></svg>