<svg height="512" viewBox="0 0 480.9 480.9" width="512" xmlns="http://www.w3.org/2000/svg"><path d="M104 160l-16 1c-22 0-40 18-40 40v32c0 22 18 40 40 40h6l7 34 15-4-6-39-6-104zm-40 73v-32c0-13 11-24 24-24h1l4 80h-5c-13 0-24-11-24-24zM339 382l-12-10-20 19c-11 10-24 17-37 23-19 9-40 9-59 0-13-6-26-13-37-23l-14 6v27c0 16-2 31-7 46a8 8 0 007 11h160a8 8 0 008-11c-5-15-8-30-8-46v-23l19-19zm-168 83c4-14 5-27 5-41v-11c9 6 19 12 29 16 22 10 48 10 71 0 10-4 20-10 28-16v11c0 14 2 27 6 41zM342 245l5-16c-23-6-46-6-69 0l5 16c19-5 40-5 59 0zM203 313l-6 15 3 1a111 111 0 0066 5l-3-16c-19 5-39 3-57-4zM358 187a66 66 0 00-91 0l11 12c21-19 49-19 69 0zM123 187l11 12c20-19 48-19 69 0l11-12a66 66 0 00-91 0zM232 201h16v88h-16z"/><circle cx="168.5" cy="232.9" r="16"/><path d="M472 297h-78l-79-24c-4-1-7 1-9 3l-7 11a61 61 0 000 68l7 10c2 3 5 5 9 4l29-9 50-15h78c5 0 8-4 8-8v-32c0-4-3-8-8-8zm-88 34l-37 11v-13c4-8 4-17 0-26l-1-4 38 12zm-72 15a45 45 0 010-50l4-6 15 5c-1 5 0 10 2 15 2 4 2 9 0 13-3 7-4 15-2 22l1 2-16 5zm152-17h-64v-16h64zM8 381h79l16 4h64c10 0 17-8 17-18v-28c0-10-7-18-17-18h-63-2l-15 4H8c-4 0-8 4-8 8v40c0 4 4 8 8 8zm160-42v28l-1 2h-23v-32h23l1 2zm-152 2h75l15-4h22v32h-23l-15-4H16v-24zM8 153h33l101-7c8-1 15-4 21-9h21c7 0 12-4 15-9l43-7c4-1 6-4 6-8V97c0-4-2-7-6-8l-43-7-2-3a156 156 0 01143 31c19 17 31 38 35 60l-4 102 21 1c23 0 40-18 40-40v-32c0-22-17-40-40-40v-8a151 151 0 00-273-91l-79-5H8c-4 0-8 4-8 8v80c0 4 4 8 8 8zm297-84l-22-7 16-32c10 5 19 11 27 18zm-38-10l-19-2V17c13 1 24 3 36 7zm-35-2l-18 2-17-35c11-4 23-6 35-7zm-34 5l-22 7-22-21c9-7 18-13 28-18zm-30 59V89h16v32zm64-15l-32 5V98l32 6zm125-2l7-7c4 9 7 18 9 28-4-8-10-15-16-21zm59 97v32c0 13-10 24-24 24h-4l3-80h1c14 0 24 11 24 24zM356 82l-11 11-25-17 18-18c7 8 13 15 18 24zM143 58l7 8-8-2h-4l5-6zM16 73h24l101 7c4 0 8 2 11 5v40c-3 3-7 4-11 5l-93 6V97H32v40H16V73z"/></svg>