<svg enable-background="new 0 0 100 100" height="512" viewBox="0 0 100 100" width="512" xmlns="http://www.w3.org/2000/svg"><path d="m78.5324554 68.1644897-14.9857216-6.5877686c-1.1951904-.5254517-2.5946045-.1755371-3.4017334.850769l-1.9726562 2.7427368c-.9470215 1.3165283-2.7509766 1.6674194-4.1323242.8178711-10.0726318-6.1949463-18.5684204-14.6532593-24.8049927-24.6967163-.8580933-1.381897-.5093994-3.1932373.8110962-4.1430664l2.8034058-2.0164185c1.0261841-.8071289 1.3761597-2.2064209.850708-3.4016705l-6.5878296-14.9856567c-.6362305-1.4472046-2.3250732-2.1046143-3.7722168-1.4683838l-7.5521851 3.4439697c-4.6326294 2.0366211-6.7371826 7.4431152-4.7006226 12.0757446l.9610596 2.1861553c.9193115 2.3623047 1.9362793 4.6733398 3.0461426 6.9291382l.0429077.0975952c.0328979.0748291.0740967.142395.1099243.2149048 8.4100952 16.9240112 22.055603 30.6895142 38.8934326 39.2416382.3380127.2629395.7128906.4920044 1.1273193.6741333l9.2128944 4.0501099c4.6325684 2.036499 10.0391846-.0679932 12.0756836-4.7006836l3.4439697-7.552124c.6362306-1.4471434-.0212401-3.1359862-1.4682616-3.7722777z" fill="#ededed"/><path d="m30.8459511 36.5730209 2.0035553-1.4410896c1.0262489-.8071404 1.3761635-2.2065544.8507729-3.40168l-6.5878792-14.9857044c-.636158-1.447094-2.3250599-2.1045599-3.7721977-1.4683828l-1.5465355.7052727z" fill="#de594e"/><path d="m58.6916389 64.4482117 1.4533958-2.0207558c.8071365-1.0262451 2.2065506-1.3761597 3.4016762-.850769l14.9857063 6.5878792c1.4470978.6361542 2.1045609 2.325058 1.4683838 3.7721939l-.7053452 1.5465317z" fill="#de594e"/><path d="m86.0468597 15.0333881h-32.3496131c-2.0119629 0-3.6428223 1.6309814-3.6428223 3.6429443v17.7621441c0 2.0119019 1.6308594 3.6428833 3.6428223 3.6428833h2.5019531v7.9672852l7.967289-7.9672852h21.8803711c2.0119629 0 3.6428223-1.6309814 3.6428223-3.6428833v-17.762144c-.0000001-2.0119629-1.6308595-3.6429444-3.6428224-3.6429444z" fill="#feda6f"/><g fill="#d6b24e"><path d="m55.470676 20.411688h28.802748v2.094745h-28.802748z"/><path d="m55.470676 25.513224h28.802748v2.094745h-28.802748z"/><path d="m55.470676 30.614759h28.802748v2.094745h-28.802748z"/></g></svg>