<svg height="512" width="512" xmlns="http://www.w3.org/2000/svg"><linearGradient id="a" gradientUnits="userSpaceOnUse" x1="256" x2="256" y1="496" y2="16"><stop offset="0" stop-color="#12c2e9"/><stop offset=".5" stop-color="#c471ed"/><stop offset="1" stop-color="#f64f59"/></linearGradient><path d="M256 16a128 128 0 00-128 128c0 62 45 114 104 126v218a8 8 0 008 8h32a8 8 0 008-8V270c59-12 104-64 104-126A128 128 0 00256 16zm81 51c-9 8-17 10-27 13-11 3-24 6-40 22a79 79 0 00-15 21 65 65 0 01-3-19c0-18 5-26 11-36 5-9 10-18 12-34a112 112 0 0162 33zm-65 91a65 65 0 0115 12c12 12 15 22 18 33 2 9 5 20 16 32a111 111 0 01-65 21h-3c1-13 5-20 10-28 6-10 13-22 13-44a79 79 0 00-4-26zM259 32c-1 13-5 20-10 28-6 10-13 22-13 44a79 79 0 004 26 65 65 0 01-15-12c-12-12-15-22-18-33-2-9-5-20-16-32a111 111 0 0165-21h3zm-80 31c8 9 10 17 13 27 3 11 6 24 22 40a79 79 0 0021 15 65 65 0 01-19 3c-18 0-26-5-36-11-9-5-18-10-34-12a112 112 0 0133-62zm-35 78c13 1 20 5 28 10 10 6 22 13 44 13a79 79 0 0026-4 65 65 0 01-12 15 62 62 0 01-33 18c-9 2-20 5-32 16a111 111 0 01-21-65v-3zm31 80c9-8 17-10 27-13 11-3 24-6 40-22a79 79 0 0015-21 65 65 0 013 19c0 18-5 26-11 36-5 9-10 18-12 34a112 112 0 01-62-33zm89 259h-16V272h16zm69-255c-8-9-10-17-13-27-3-11-6-24-22-40a79 79 0 00-21-15 65 65 0 0119-3c18 0 26 5 36 11 9 5 18 10 34 12a112 112 0 01-33 62zm35-78c-13-1-20-5-28-10-10-6-22-13-44-13a79 79 0 00-26 4 65 65 0 0112-15c12-12 22-15 33-18 9-2 20-5 32-16a111 111 0 0121 65v3zM80 264a32 32 0 1032-32 32 32 0 00-32 32zm48 0a16 16 0 11-16-16 16 16 0 0116 16zm344-128a32 32 0 10-32 32 32 32 0 0032-32zm-48 0a16 16 0 1116 16 16 16 0 01-16-16zm-56 304a32 32 0 1032-32 32 32 0 00-32 32zm48 0a16 16 0 11-16-16 16 16 0 0116 16zM72 40a32 32 0 1032 32 32 32 0 00-32-32zm0 48a16 16 0 1116-16 16 16 0 01-16 16zM16 347a8 8 0 005 7l40 13a24 24 0 003 31l34 34a24 24 0 0030 3l13 39a8 8 0 007 5 8 8 0 008-4l10-20 20-11a8 8 0 00-1-14l-39-13a24 24 0 00-3-31l-34-34a24 24 0 00-30-3l-13-39a8 8 0 00-15-1l-10 20-21 11a8 8 0 00-4 7zm140 94a8 8 0 00-3 4l-3 5-6-17 18 6zm-64-80a8 8 0 016 3l33 34a8 8 0 010 11l-5 6-6 5a8 8 0 01-11 0l-34-34a8 8 0 010-11l11-11a8 8 0 016-3zm-42-18a8 8 0 004-4l2-5 6 17-17-6zm319-68a24 24 0 00-3 30l-39 13a8 8 0 00-1 15l20 10 10 21a8 8 0 008 4 8 8 0 007-5l13-40a24 24 0 0030-3l34-34a24 24 0 003-30l40-13a8 8 0 001-15l-21-10-10-20a8 8 0 00-15 1l-13 39a24 24 0 00-30 3zm-7 64l-3-5a8 8 0 00-3-4l-6-2 18-6zm94-117l2 6a8 8 0 004 3l5 3-17 6zm-36 28a8 8 0 016 3l5 5 6 6a8 8 0 010 11l-34 34a8 8 0 01-11 0l-6-6-5-5a8 8 0 010-12l33-33a8 8 0 016-3z" fill="url(#a)"/></svg>