<svg xmlns="http://www.w3.org/2000/svg" data-name="Layer 1" width="512" height="512"><path d="M189 489h134a6 6 0 006-6v-48h104a6 6 0 006-6v-39c0-34-28-63-63-63h-20c-25 0-48 16-58 39a62 62 0 00-32-8h-20a62 62 0 00-32 9 64 64 0 00-58-40h-20c-35 0-63 29-63 63v39a6 6 0 006 6h104v48a6 6 0 006 6zm167-150h20c28 0 51 23 51 51v33h-98v-2a63 63 0 00-21-47c7-21 27-35 48-35zm-110 31h20c28 0 51 22 51 51v56H195v-57a51 51 0 0151-50zM85 423v-33c0-28 23-51 51-51h20c21 0 40 14 48 35a63 63 0 00-21 46v3z"/><path d="M52 308h68a45 45 0 0026 8 45 45 0 0026-8h40c3 21 21 38 44 38a44 44 0 0031-13 46 46 0 0013-25h40a46 46 0 0026 8 44 44 0 0026-8h68a6 6 0 006-6V29a6 6 0 00-6-6H52a6 6 0 00-6 6v273a6 6 0 006 6zm94-4a33 33 0 110-65 33 33 0 0133 33c-1 18-15 32-33 32zm-45-35H84V62h344v207h-18c-1-23-20-42-44-42a44 44 0 00-45 42h-34c-8-8-19-12-31-12s-23 4-31 12h-34c-2-23-21-42-45-42s-44 19-45 42zm195 12h26a37 37 0 006 15h-28a52 52 0 00-4-15zm-107 0h27a50 50 0 00-5 15h-28a39 39 0 006-15zm90 43a32 32 0 01-23 10 33 33 0 01-33-33 32 32 0 0133-32 33 33 0 0132 32 32 32 0 01-9 23zm87-20a33 33 0 110-65 33 33 0 0132 33 32 32 0 01-32 32zM58 35h396v261h-51a38 38 0 006-15h25c3 0 6-2 6-6V56c0-4-3-6-6-6H78c-3 0-6 2-6 6v219c0 4 3 6 6 6h24a38 38 0 007 15H58z"/><path d="M157 129l26 10v65a6 6 0 004 6 182 182 0 00127 0 6 6 0 004-6v-65l18-7v22a17 17 0 00-11 16 17 17 0 0017 17 17 17 0 0017-17 18 18 0 00-11-16v-30-1a6 6 0 00-4-6l-92-33a6 6 0 00-4 0l-91 33a6 6 0 00-4 6 6 6 0 004 6zm38 71v-17a182 182 0 00111 0v17a170 170 0 01-111 0zm111-30a170 170 0 01-111 0v-27l53 21a6 6 0 002 1 6 6 0 003-1l53-21zm36 5a5 5 0 115-5 5 5 0 01-5 5zm-92-79l75 27-15 6a6 6 0 00-1 0l-59 23-59-23-15-6z"/></svg>