<svg xmlns="http://www.w3.org/2000/svg" viewBox="0 0 512 512"><path d="M310 1l-1-1h-18a2 2 0 00-3 3l9 26a2 2 0 005 0l9-26-1-2z" fill="#5eac24"/><path d="M343 40l-16-6 9-19a6 6 0 00-8-9l-28 14-28-14a6 6 0 00-9 9l10 19-17 6a6 6 0 000 12l44 20 44-20a6 6 0 00-1-12z" fill="#6dc82a"/><path d="M311 480h-43v-76c0-37 28-50 28-50h-91s28 13 28 51v75h-43c-9 0-16 7-16 16s7 16 16 16h121c9 0 16-7 16-16s-7-16-16-16z" fill="#b9d8f4"/><g fill="#96c8ef"><path d="M207 496c0-9 7-16 16-16h-33c-9 0-16 7-16 16s7 16 16 16h33c-9 0-16-7-16-16zM296 354h-91s25 12 28 45a107 107 0 0035 0c3-33 28-45 28-45z"/></g><path d="M330 62c0 17-14 48-30 48-17 0-31-31-31-48s14-31 31-31c16 0 30 14 30 31z" fill="#ff0c38"/><path d="M313 35c-4-2-8-4-13-4-17 0-31 14-31 31s14 48 31 48c5 0 9-3 13-7-10-10-17-29-17-41s7-22 17-27z" fill="#d80027"/><path d="M302 79c-1-4-4-7-8-7h-87c-4 0-7 3-9 7-20 66-34 160-34 192 0 54 39 98 86 98s86-44 86-98c0-32-13-126-34-192z" fill="#d1e7f8"/><path d="M218 271c0-32 14-126 34-192 1-4 5-7 9-7h-54c-4 0-7 3-9 7-20 66-34 160-34 192 0 54 39 98 86 98 10 0 19-1 27-5a98 98 0 01-59-93z" fill="#b9d8f4"/><path d="M285 121c-1-3-5-5-8-5h-53c-4 0-7 2-8 5-15 56-25 127-25 152 0 39 26 70 59 70s60-31 60-70c0-25-10-96-25-152z" fill="#ff5023"/><path d="M246 343c-17-18-28-44-28-72 0-27 9-95 24-155h-18c-4 0-7 2-8 5-15 56-25 127-25 152 0 37 24 67 55 70z" fill="#ff3501"/><g fill="#d80027"><path d="M243 251a8 8 0 01-8-8 8 8 0 018-7c2 0 4 0 5 2a8 8 0 010 11l-5 2zM273 226a8 8 0 01-8-7 8 8 0 018-8l6 2a8 8 0 010 11c-2 2-4 2-6 2zM242 214a8 8 0 01-8-8 8 8 0 018-8l6 2a8 8 0 010 11l-6 3zM264 186a8 8 0 01-8-8 8 8 0 018-8c2 0 4 1 5 3a8 8 0 010 11l-5 2z"/></g><g fill="#ff3501"><path d="M279 279c-4 0-8-4-8-8v-6a8 8 0 0115-1l1 7c0 8-8 8-8 8zM250 320a8 8 0 110-16c7 0 14-6 18-15a8 8 0 1114 7c-6 14-19 24-32 24z"/></g><path d="M224 116c-4 0-7 2-8 5l-9 38h87l-9-38c-1-3-5-5-8-5h-53z" fill="#ffc477"/><path d="M224 116c-4 0-7 2-8 5l-9 38h26c2-15 6-29 9-43h-18z" fill="#ffb655"/></svg>