<svg height="512" viewBox="0 0 64 64" width="512" xmlns="http://www.w3.org/2000/svg"><g id="Layer_30" data-name="Layer 30"><rect fill="#4472b0" height="32" rx="4" width="50" x="2" y="22"/><path d="m2 28h50v7h-50z" fill="#ebf7fe"/><path d="m62 17-3.31-.74a13.56 13.56 0 0 1 -8.69-6.26 13.56 13.56 0 0 1 -8.69 6.26l-3.31.74a28 28 0 0 0 11.2 22.4l.8.6.8-.6a28 28 0 0 0 11.2-22.4z" fill="#78b75b"/><path d="m58 16.07a13.56 13.56 0 0 1 -8-6.07 13.56 13.56 0 0 1 -8.69 6.26l-3.31.74a28 28 0 0 0 6.26 17.64c8.01-2.89 13.74-10.1 13.74-18.57z" fill="#96cc7f"/><path d="m45 23h10v8h-10z" fill="#f7d881"/><path d="m50 16a4 4 0 0 0 -4 4v3h2v-3a2 2 0 0 1 4 0v3h2v-3a4 4 0 0 0 -4-4z" fill="#c1c8d1"/><path d="m49 26h2v2h-2z" fill="#fff"/><path d="m44 42a4 4 0 0 0 -3 1.38 4 4 0 1 0 0 5.24 4 4 0 1 0 3-6.62z" fill="#c1c8d1"/><g fill="#f7d881"><path d="m6 46h4v4h-4z"/><path d="m14 46h4v4h-4z"/><path d="m22 46h4v4h-4z"/></g></g></svg>