<svg id="Capa_1" enable-background="new 0 0 512 512" height="512" viewBox="0 0 512 512" width="512" xmlns="http://www.w3.org/2000/svg" xmlns:xlink="http://www.w3.org/1999/xlink"><linearGradient id="SVGID_1_" gradientUnits="userSpaceOnUse" x1="256" x2="256" y1="481.001" y2="31"><stop offset="0" stop-color="#fd5900"/><stop offset="1" stop-color="#ffde00"/></linearGradient><g><g><path d="m195 241h180c8.284 0 15-6.716 15-15v-180c0-8.284-6.716-15-15-15h-180c-8.284 0-15 6.716-15 15v180c0 8.284 6.716 15 15 15zm75-180h30v35.729l-8.292-4.146c-4.223-2.111-9.193-2.111-13.416 0l-8.292 4.146zm-60 0h30v60c0 5.199 2.691 10.027 7.114 12.76 4.422 2.733 9.942 2.981 14.594.657l23.292-11.647 23.292 11.646c4.668 2.334 10.191 2.065 14.594-.657 4.423-2.733 7.114-7.561 7.114-12.76v-59.999h30v150h-150zm297.607 201.965c-14.164-14.165-32.997-21.965-53.029-21.965s-38.864 7.801-53.028 21.965l-10.898 10.898c-2.705-3.927-7.233-6.501-12.362-6.501h-181.447c-13.04 0-25.914 3.421-37.232 9.894l-151.977 85.677c-3.635 2.049-6.252 5.52-7.223 9.578-.971 4.059-.206 8.337 2.108 11.809l60 90c2.887 4.331 7.643 6.681 12.494 6.681 2.783 0 5.599-.774 8.109-2.392l95.078-61.249h165.158c20.033 0 38.867-7.801 53.032-21.967l111.216-111.215c5.859-5.858 5.859-15.355.001-21.213zm-132.429 111.215c-8.499 8.5-19.8 13.18-31.819 13.18h-169.572c-2.881 0-5.701.83-8.123 2.39l-86.374 55.643-42.843-64.264s137.994-77.795 138.024-77.812c6.799-3.896 14.534-5.955 22.371-5.955h163.876c-6.149 17.343-22.648 29.831-42.033 29.998-.057 0-84.896.002-84.896.002-8.284 0-15 6.716-15 15s6.716 15 15 15c0 0 84.887-.001 85.081-.002 19.9-.092 38.596-7.884 52.677-21.966l51.216-51.215c8.498-8.499 19.797-13.179 31.815-13.179 6.828 0 13.424 1.51 19.406 4.374z" fill="url(#SVGID_1_)"/></g></g></svg>