<svg height="512" viewBox="0 0 486.9 486.9" width="512" xmlns="http://www.w3.org/2000/svg"><path d="M474 453l-21 21c-4 4-11 4-14 0L99 134c-6-6-6-15 0-21l14-14c6-6 15-6 21 0l340 340c4 3 4 10 0 14z" fill="#a7bdcd"/><path d="M187 151l-36 36-52-53c-6-6-6-15 0-21l14-14c6-6 15-6 21 0z" fill="#ffda8f"/><path d="M481 432L141 92a25 25 0 00-35 0l-14 14a25 25 0 000 35l196 196c3 4 10 4 14 0s4-10 0-14L165 187l22-22 280 281-21 21-80-80c-5-4-11-4-15 0s-4 10 0 14l80 80c8 8 21 8 29 0l21-21c8-8 8-21 0-28zM151 172l-45-45c-2-2-2-5 0-7l14-14c2-2 5-2 7 0l45 45zm186 190a10 10 0 11-20 0 10 10 0 0120 0zM52 133H10a10 10 0 110-20h42a10 10 0 110 20zm61-81V10a10 10 0 1120 0v42a10 10 0 11-20 0zm303 49c0-5 4-10 10-10h24a10 10 0 010 20h-24c-6 0-10-4-10-10zM36 50a10 10 0 0114-14l30 30a10 10 0 01-14 14zm130 30c-4-4-4-10 0-14l30-30a10 10 0 0114 14l-30 30c-4 4-10 4-14 0zm-86 86c4 4 4 10 0 14l-30 30a10 10 0 01-14-14l30-30c4-4 10-4 14 0zM389 61l8-23a10 10 0 0119 6l-8 23a10 10 0 01-19-6zm-62-3c3-4 10-5 14-2l20 14a10 10 0 11-12 16l-20-14c-4-3-5-9-2-14zm81 77l8 24a10 10 0 01-19 6l-8-24a10 10 0 0119-6zm-81 9c-3-4-2-10 2-13l20-15a10 10 0 0112 16l-20 15c-4 3-11 2-14-3zM118 318l-27-8a10 10 0 116-19l27 8a10 10 0 11-6 19zm99 22c-2 5-8 8-13 6l-27-8a10 10 0 116-19l27 8c5 2 8 8 7 13zm-39-75l-8 27a10 10 0 11-19-6l8-27a10 10 0 1119 6zm-28 86l-8 27a10 10 0 11-19-6l8-27a10 10 0 1119 6z"/></svg>