<svg height="628" viewBox="-71 0 471 472" width="628" xmlns="http://www.w3.org/2000/svg"><path d="M328 107c1-4 0-8-3-10L221 35l-24-14-32-20h-8L5 65c-3 1-5 4-5 7v64a8 8 0 008 8l3-1h1l134-63 78 15 58 10-15 32c-2 4-2 7-2 11v181c-1 7 2 13 7 17l2 2 7 23c1 2 3 4 7 5v8a8 8 0 000 16v8h-8a8 8 0 000 16h8v8h-8a8 8 0 000 16h8v8a8 8 0 000 16h16a8 8 0 000-16v-8h8a8 8 0 000-16h-8v-8h8a8 8 0 000-16h-8v-8a8 8 0 000-16v-8c4 0 7-2 8-5l7-23 2-2c5-4 8-10 7-17V148c0-4 0-8-2-11l-14-26 7 1c4 1 8-2 9-5zM16 77l20-8-20 36zm12 41l31-59 17-7-31 58zm42-20l29-56 18-7-30 55zm59-28l-17 9 28-54 17-7zm21-5l22-41 11 7-20 36zm42 8l-12-3 16-31 11 6zm29 5l-12-2 12-23 10 7zm30 5l-13-2 7-13 10 6zm16 3l2-4 10 6zm45 243c0 2 0 5-2 6l-3 3-2 3-6 19h-5l-6-19-2-3-3-3c-2-1-2-4-3-6v-9h32zm0-25h-32V168h32zm0-156v4h-32v-4l1-4 15-30 16 30v4zm0 0"/><path d="M236 175a8 8 0 00-7-14l-15 8c-53 31-118 31-171 0l-15-8a8 8 0 00-7 14l14 8-15 10a8 8 0 009 14l23-15 25 9-10 9a8 8 0 1011 12l16-16 1-1 18 2v25a8 8 0 0016 0v-24a188 188 0 0034-2l16 16a8 8 0 0011-12l-10-9 25-9 23 15a8 8 0 109-14l-15-10zm0 0"/></svg>