<svg height="604" viewBox="-75 0 453 454" width="604" xmlns="http://www.w3.org/2000/svg"><path d="M147 49l20-36-11-7-22 41zm0 0M296 130v-4l-16-30-15 30-1 4v4h32zm0 0M176 55l15-28-11-6-16 31zm0 0M113 52l28-52-17 7-28 54zm0 0M264 150h32v136h-32zm0 0M215 42l-10-7-12 23 12 2zm0 0M71 72l30-55-18 7-29 56zm0 0M222 63l13 2 4-9-10-6zm0 0M29 92l31-58-17 7-31 59zm0 0M253 64l-2 4 12 2zm0 0M0 59v28l20-36zm0 0M220 157a8 8 0 00-7-14l-15 8c-53 31-118 31-171 0l-15-8a8 8 0 00-7 14l14 8-15 10a8 8 0 109 14l23-16 25 10-10 9a8 8 0 1011 12l16-16 1-1 18 2v25a8 8 0 0016 0v-24a188 188 0 0034-2l16 16a8 8 0 0011-12l-10-9 25-9 23 15a8 8 0 109-14l-15-10zm0 0M295 414h-8v-8h8a8 8 0 000-16h-8v-8a8 8 0 000-16v-38l2-5 2-3 3-3c2-2 2-4 2-6v-9h-32v9l3 6 3 3 1 2v44a8 8 0 000 16v8h-8a8 8 0 000 16h8v8h-8a8 8 0 000 16h8v8a8 8 0 000 16h16a8 8 0 000-16v-8h8a8 8 0 000-16zm0 0"/></svg>