<svg height="446pt" viewBox="0 -127 446.25 446" width="446pt" xmlns="http://www.w3.org/2000/svg"><g fill="#d4e1f4"><path d="m12 38.84375h20v18.9375h-20zm0 0"/><path d="m12 12.125h20v14.71875h-20zm0 0"/><path d="m12 69.78125h20v18.9375h-20zm0 0"/><path d="m64.726562 162.59375h-20c17.398438 13.492188 39.414063 19.574219 61.273438 16.929688-15.039062-1.800782-29.304688-7.652344-41.273438-16.929688zm0 0"/><path d="m19.910156 131.65625c3.207032 6.832031 7.316406 13.203125 12.222656 18.9375h20c-4.90625-5.734375-9.015624-12.105469-12.222656-18.9375zm0 0"/><path d="m12.132812 100.71875c.347657 6.417969 1.4375 12.769531 3.246094 18.9375h20c-1.808594-6.167969-2.898437-12.519531-3.246094-18.9375zm0 0"/><path d="m318.976562 162.59375h-20c17.398438 13.488281 39.417969 19.574219 61.273438 16.929688-15.035156-1.800782-29.300781-7.652344-41.273438-16.929688zm0 0"/><path d="m274.160156 131.65625c3.207032 6.832031 7.316406 13.203125 12.222656 18.9375h20c-4.90625-5.734375-9.015624-12.105469-12.222656-18.9375zm0 0"/><path d="m266.382812 100.71875c.347657 6.417969 1.4375 12.769531 3.246094 18.9375h20c-1.808594-6.167969-2.898437-12.519531-3.246094-18.9375zm0 0"/><path d="m270.503906 69.78125c-2.03125 6.140625-3.34375 12.496094-3.910156 18.9375h20c.566406-6.441406 1.878906-12.796875 3.910156-18.9375zm0 0"/><path d="m288.890625 38.84375c-5.296875 5.667969-9.785156 12.042969-13.339844 18.9375h20c3.554688-6.894531 8.042969-13.269531 13.339844-18.9375zm0 0"/><path d="m350.25 12.125c-16.933594-.015625-33.476562 5.117188-47.425781 14.71875h20c13.949219-9.601562 30.492187-14.734375 47.425781-14.71875zm0 0"/><path d="m162.410156 12.125h-20c15.480469 8.59375 28.300782 21.273438 37.070313 36.65625 6.003906-1.300781 12.0625-2.324219 18.167969-3.070312-8.6875-14.015626-20.820313-25.578126-35.238282-33.585938zm0 0"/></g><path d="m177.566406 61.507812c.078125-.015624.152344-.03125.230469-.050781 29.796875-7.136719 60.859375-7.136719 90.65625 0 3.203125.734375 6.402344-1.25 7.171875-4.445312.765625-3.195313-1.175781-6.414063-4.363281-7.21875-31.628907-7.578125-64.605469-7.582031-96.238281-.011719-3.191407.746094-5.195313 3.914062-4.5 7.117188.695312 3.203124 3.832031 5.253906 7.042968 4.609374zm0 0" fill="#1ae5be"/><path d="m96 192.125c31.429688 0 60.867188-15.382812 78.8125-41.1875 17.945312-25.800781 22.125-58.753906 11.1875-88.21875l-2-4.9375c-15.28125-34.988281-49.820312-57.617188-88-57.65625-3.3125 0-6 2.6875-6 6s2.6875 6 6 6c16.933594-.015625 33.476562 5.117188 47.425781 14.71875h-131.425781v-20.71875c0-3.3125-2.6875-6-6-6s-6 2.6875-6 6v90c.0585938 52.996094 43.003906 95.941406 96 96zm-51.273438-29.53125h102.546876c-30.1875 23.375-72.359376 23.375-102.546876 0zm115.140626-12h-127.734376c-4.90625-5.734375-9.015624-12.105469-12.222656-18.9375h152.179688c-3.207032 6.832031-7.316406 13.203125-12.222656 18.9375zm20-49.875c-.351563 6.417969-1.441407 12.769531-3.25 18.9375h-161.238282c-1.808594-6.167969-2.898437-12.519531-3.246094-18.9375zm-167.871094-12v-18.9375h163.75c2.03125 6.140625 3.34375 12.496094 3.910156 18.9375zm145.359375-49.875c5.296875 5.667969 9.785156 12.042969 13.339843 18.9375h-158.695312v-18.9375zm0 0" fill="#0635c9"/><path d="m350.25 192.125c52.996094-.058594 95.941406-43.003906 96-96v-90c0-3.3125-2.6875-6-6-6s-6 2.6875-6 6v20.71875h-131.425781c13.949219-9.601562 30.492187-14.734375 47.425781-14.71875 3.3125 0 6-2.6875 6-6s-2.6875-6-6-6c-38.179688.039062-72.71875 22.667969-88 57.65625l-2 4.9375c-10.9375 29.464844-6.757812 62.417969 11.1875 88.21875 17.945312 25.804688 47.382812 41.1875 78.8125 41.1875zm-83.65625-103.40625c.566406-6.441406 1.878906-12.796875 3.910156-18.9375h163.746094v18.9375zm167.523438 12c-.347657 6.417969-1.4375 12.769531-3.246094 18.9375h-161.246094c-1.808594-6.167969-2.898438-12.519531-3.246094-18.9375zm-135.140626 61.875h102.546876c-30.183594 23.375-72.355469 23.375-102.542969 0zm115.140626-12h-127.734376c-4.90625-5.734375-9.015624-12.105469-12.222656-18.9375h152.179688c-3.207032 6.832031-7.316406 13.203125-12.222656 18.9375zm-125.226563-111.75h145.359375v18.9375h-158.699219c3.554688-6.894531 8.042969-13.269531 13.339844-18.9375zm0 0" fill="#0635c9"/><path d="m440.25.125h-434.25c-3.3125 0-6 2.6875-6 6s2.6875 6 6 6h434.25c3.3125 0 6-2.6875 6-6s-2.6875-6-6-6zm0 0" fill="#1ae5be"/></svg>