<svg id="Capa_1" enable-background="new 0 0 512 512" height="512" viewBox="0 0 512 512" width="512" xmlns="http://www.w3.org/2000/svg"><g><g><path d="m195.021 464.536-28.895-36.906c-17.235-22.015-17.981-52.151-1.854-74.989 7.996-11.325 7.999-26.547.009-37.877l-1.086-1.538c-15.284-21.669-15.284-50.783-.002-72.449l1.088-1.542c7.991-11.329 7.987-26.55-.01-37.875l-1.039-1.473c-15.309-21.683-15.307-50.819.007-72.5l11.744-16.63c3.937-5.574 6.017-12.126 6.017-18.949v-26.808c0-19.299-15.701-35-35-35s-35 15.701-35 35v387h-30v-387c0-35.841 29.159-65 65-65s65 29.159 65 65v26.808c0 13.054-3.98 25.591-11.511 36.254l-11.746 16.631c-8.003 11.332-8.004 26.559-.002 37.893l1.039 1.472c15.299 21.668 15.307 50.792.017 72.469l-1.088 1.542c-7.987 11.324-7.987 26.54 0 37.863l1.085 1.539c15.292 21.682 15.285 50.805-.016 72.474-8.428 11.937-8.038 27.687.97 39.192l28.895 36.906z" fill="#00429b"/></g><g><path d="m189.748 409.136c-9.008-11.506-9.397-27.256-.97-39.192 15.301-21.669 15.308-50.792.016-72.474l-1.085-1.539c-7.987-11.323-7.987-26.539 0-37.863l1.088-1.542c15.29-21.677 15.282-50.801-.017-72.469l-1.039-1.472c-8.002-11.333-8.001-26.561.002-37.893l11.746-16.631c7.53-10.663 11.511-23.2 11.511-36.254v-26.807c0-35.841-29.159-65-65-65v30c19.299 0 35 15.701 35 35v26.808c0 6.823-2.08 13.375-6.017 18.948l-11.744 16.63c-15.313 21.681-15.315 50.818-.007 72.5l1.039 1.473c7.997 11.325 8.001 26.546.01 37.875l-1.088 1.542c-15.282 21.666-15.282 50.78.002 72.449l1.086 1.538c7.99 11.33 7.987 26.552-.009 37.877-16.127 22.838-15.381 52.974 1.854 74.989l28.895 36.906 23.621-18.494z" fill="#00337a"/></g><g><path d="m366 512c-35.841 0-65-29.159-65-65v-26.808c0-13.054 3.98-25.591 11.511-36.254l11.746-16.631c8.003-11.332 8.004-26.559.002-37.893l-1.039-1.472c-15.299-21.668-15.307-50.792-.017-72.469l1.088-1.542c7.987-11.324 7.987-26.54 0-37.863l-1.085-1.539c-15.292-21.682-15.285-50.805.016-72.474 8.428-11.937 8.038-27.687-.97-39.192l-28.895-36.906 23.621-18.494 28.895 36.906c17.235 22.015 17.98 52.15 1.855 74.989-7.997 11.325-8 26.547-.01 37.877l1.086 1.538c15.284 21.669 15.284 50.783.002 72.449l-1.088 1.542c-7.991 11.329-7.987 26.55.01 37.875l1.039 1.473c15.309 21.683 15.307 50.819-.007 72.5l-11.744 16.63c-3.937 5.573-6.017 12.125-6.017 18.948v26.81c0 19.299 15.701 35 35 35s35-15.701 35-35v-387h30v387c.001 35.841-29.158 65-64.999 65z" fill="#00429b"/></g><g><path d="m401 60v387c0 19.299-15.701 35-35 35v30c35.841 0 65-29.159 65-65v-387z" fill="#00337a"/></g><path d="m216 512c-20.678 0-37.5-16.823-37.5-37.5s16.822-37.5 37.5-37.5 37.5 16.823 37.5 37.5-16.822 37.5-37.5 37.5z" fill="#d0004f"/><path d="m96 512c-20.678 0-37.5-16.823-37.5-37.5s16.822-37.5 37.5-37.5 37.5 16.823 37.5 37.5-16.822 37.5-37.5 37.5z" fill="#ff64aa"/><path d="m296 75c-20.678 0-37.5-16.823-37.5-37.5s16.822-37.5 37.5-37.5 37.5 16.823 37.5 37.5-16.822 37.5-37.5 37.5z" fill="#ff64aa"/><path d="m416 75c-20.678 0-37.5-16.823-37.5-37.5s16.822-37.5 37.5-37.5 37.5 16.823 37.5 37.5-16.822 37.5-37.5 37.5z" fill="#d0004f"/></g></svg>