<svg height="512" viewBox="0 0 100 100" width="512" xmlns="http://www.w3.org/2000/svg"><path d="M59.922 80.166H41.076c.138-3.977-1.326-8.103-1.66-9.994-.334-1.89-1.326-4.83-5.637-4.83s-6.397 2.79-9.948 3.263c-3.55.484-4.633-1.418-4.737-3.02-.092-1.614 1.233-2.894-1.222-3.366a2.163 2.163 0 01-.415-.104c-1.902-.6.175-3.056.175-3.056-2.27.53-2.071-.697-2.071-.697.46-.588-.306-1.238-.282-1.757a3.192 3.192 0 00-.208-1.348c-3.435 0-5.902-2.329-2.64-5.626 3.274-3.296 2.64-6.455.577-13.728-2.052-7.274 4.436-17.665 4.436-17.665l9.765 5.919 26.12 21.82.438 10.029c-1.983 4.737 6.155 24.16 6.155 24.16z" fill="#fed35b"/><g fill="#293b44"><path d="M18.19 17.261c-3.544.01-6.785 2.39-8.571 5.45s-2.31 6.703-2.326 10.247l2.135-5.834c.669-1.827 1.35-3.68 2.491-5.255 1.14-1.576 2.819-2.866 4.75-3.093a14.134 14.134 0 00-4.597 6.718 14.134 14.134 0 00-.096 8.14c.303-2.602.61-5.222 1.387-7.724s2.06-4.908 4.037-6.626c-1.475 2.058-2.325 4.56-2.408 7.091s.6 5.083 1.938 7.234c-.524-2.256-1.05-4.533-1.079-6.85-.029-2.315.48-4.704 1.852-6.57-.264 2.334-.527 4.718-.02 7.011.298 1.355.858 2.636 1.42 3.905.494 1.117 1.059 2.306 2.126 2.9a34.139 34.139 0 01-2.14-13.669 29.756 29.756 0 005.564 12.64L22.849 27.2c1.011 2.375 3.338 4.137 5.897 4.467 4.01.519 7.689 2.421 10.541 5.288.747.75 1.427 1.572 2.243 2.247.89.736 1.99 1.368 2.364 2.46.49 1.433-.49 2.907-1.36 4.147-.87 1.24-1.698 2.877-.937 4.186.52.896 1.6 1.271 2.59 1.577l5.343 1.653c1.437.444 2.924.894 4.42.731 2.088-.226 3.864-1.607 5.341-3.1 5.455-5.506 8.45-13.363 8.045-21.103-.191-3.67-1.159-7.389-3.358-10.333-.774-1.037-1.71-2.001-2.121-3.228-.411-1.228-.067-2.847 1.131-3.337.749-.306 1.634-.081 2.29.39s1.123 1.16 1.537 1.855c3.221 5.407 3.991 12.212 2.06 18.201-3.39 10.519-.855 21.806-1.349 32.847-.261 5.845-.481 11.929 1.856 17.293 1.87 4.293 5.362 7.856 9.617 9.811 4.254 1.956 9.232 2.286 13.708.91-2.7-.084-4.478-2.806-5.504-5.304-4.074-9.922-3.903-21.033-3.062-31.726s2.282-21.5.538-32.084c-.707-4.286-1.963-8.553-4.345-12.185-2.382-3.633-5.99-6.594-10.226-7.555-4.236-.96-9.07.337-11.788 3.727C50.467 6.5 42.13 5.354 33.987 6.688c-3.336.547-6.658 1.435-9.603 3.095s-4.898 4.356-6.194 7.478z"/><path d="M24.688 27.176c.221 2.28 1.684 4.265 3.38 5.805 1.698 1.54 3.667 2.758 5.362 4.3 1.695 1.542 3.154 3.53 3.367 5.812.092.978-.074 2.025-.695 2.785s-1.773 1.13-2.634.657c-.86-.471-1.097-1.869-.313-2.46-.482 1.077-.942 2.412-.234 3.356.766 1.022 2.424.815 3.442.044 1.772-1.343 2.317-3.853 1.91-6.039s-1.597-4.135-2.764-6.027c-2.355-3.815-4.866-7.786-8.758-10.01M15.444 38.578s2.857-3.09 8.493-1.815c0 0-5.56-.347-7.953 2.973zM23.528 43.625s-2.313 1.735-5.783.433c0 0-.482.916-2.072.868 0 0 3.373 1.831 7.855-1.301z"/><path d="M23.528 43.625s-4.096 1.205-4.964 3.71h.338s1.542-2.12 4.626-3.71z"/></g><path d="M16.984 51.334s1.53 2.887-1.65 3.712c0 0 2.18-.943 1.65-3.712z" fill="#d6b250"/><path d="M17.46 62.12c-1.613-.507-1.048-1.787-.84-2.167l.068-.104a9.241 9.241 0 00-.345.07h-.023c-1.88.23-1.672-1.58-1.672-1.58.461-.588.611-1.21.634-1.729l.162-.034s1.752.057 5.532 1.567c0 0 .012 0 .024.012.011 0 .034 0 .046.011 0 0 .15 3.366-3.585 3.954z" fill="#de594e"/><g fill="#467082"><path d="M12.962 19.198a8.464 8.464 0 00-3.392 4.62l1.385-2.13c.353-.543.717-1.097 1.236-1.485.63-.47 1.426-.649 2.195-.815l3.967-.858c-1.459.695-2.895 1.52-3.966 2.73s-1.737 2.866-1.438 4.454c.295-3.02 2.435-5.784 5.285-6.825a10.104 10.104 0 00-2.103 3.595 10.748 10.748 0 011.98-3.106 19.575 19.575 0 001.49 11.044l-1.059-7.39c-.102-.714-.205-1.438-.134-2.156.07-.719.333-1.444.86-1.937a30.952 30.952 0 003.053 7.847l-1.22-6.497c-.1-.525-.198-1.065-.098-1.59s.446-1.038.962-1.176c-.778.195-1.81-.033-2.615-.006-.588.02-1.14.179-1.72.248-1.695.2-3.214.462-4.668 1.433zM31.03 32.284c-.757-.556-1.56-1.054-2.253-1.69-.692-.635-2.765-2.789-2.938-3.712v.077a18.893 18.893 0 007.06 8.957c1.348.912 2.91 1.774 3.704 3.133a17.981 17.981 0 00-5.572-6.765z" opacity=".25"/><path d="M36.603 39.049c.119.252.24.502.348.759a3.758 3.758 0 00-.348-.759z"/><path d="M69.796 10.644c2.003 1.903 2.793 4.74 3.256 7.463 1.66 9.758.218 19.736-.15 29.628-.368 9.891.531 20.374 6.163 28.514a73.113 73.113 0 01-3.708-36.605l2.196 16.1.005-6.555 4.897 22.236a237.46 237.46 0 00-3.006-36.803l-.717 10.082-.537-26.595-.802 17.21c1.11-8.534-.679-17.418-5.006-24.857C71.1 8.25 69.327 5.986 66.8 5.575c-1.837-.299-7.408 1.498-6.277 4.16 3.175-1.346 6.534-1.692 9.273.909z" opacity=".25"/><g opacity=".25"><path d="M55.595 42.007a183.47 183.47 0 01-2.446 2.153c.87-.653 1.68-1.382 2.446-2.153z"/><path d="M59.494 11.83L58.38 9.35c-2.107 1.107-6.196 2.582-8.303 3.69-3.329 1.75-6.68 3.508-10.267 4.633-3.588 1.125-7.465 1.592-11.12.712 8.404 2.93 18.315 1.013 25.02-4.84a55.575 55.575 0 01-24.053 12.503c9.262.232 18.572-2.823 25.895-8.498a44.14 44.14 0 01-17.08 15.042c8.415-1.608 15.99-7.156 20.062-14.693-1.046 8.284-5.233 16.133-11.532 21.614 8.324-4.117 13.8-13.403 13.373-22.68a22.998 22.998 0 011.133 14.919c-1.02 3.86-3.101 7.422-5.913 10.255 2.043-1.835 4.009-3.753 5.644-5.952 2.284-3.069 3.915-6.763 3.868-10.587-.061-4.987-2.885-9.464-5.613-13.638zM37.74 9.493c5.304-1.125 11.144-1.625 16.528-.743-5.945-.973-12.062-.833-17.967.35-3.534.706-11.72 1.922-13.238 5.822 2.131-.476 4.44-2.16 6.561-2.994a51.267 51.267 0 018.115-2.435z"/></g></g><path d="M62.834 12.206l-2.57-4.048a1.392 1.392 0 00-2.351 1.492l2.57 4.048a1.392 1.392 0 002.35-1.492z" fill="#dbd8dd"/><path d="M21.046 58.132l-.046.023-4.38 1.798.068-.104a9.241 9.241 0 00-.345.07c.864-.565 2.662-1.58 4.633-1.776.024-.011.047-.011.07-.011z" fill="#ac433b"/><path d="M15.068 54.446s-.412-1.74-1.904-1.256 1.904 1.256 1.904 1.256z" fill="#344d5b"/><path d="M37.912 53.51l1.352 2.738 3.022.44-2.187 2.13.517 3.011-2.704-1.421-2.703 1.421.516-3.01-2.187-2.132 3.023-.44z" fill="#ededed"/><circle cx="37.912" cy="52.786" fill="#ededed" r=".961"/><circle cx="37.912" cy="51.005" fill="#ededed" r=".961"/><circle cx="37.912" cy="49.224" fill="#ededed" r=".961"/></svg>