<svg id="Capa_1" enable-background="new 0 0 511.908 511.908" height="512" viewBox="0 0 511.908 511.908" width="512" xmlns="http://www.w3.org/2000/svg"><g><g><g><g><g><path d="m338.398 322.005-50.89 50.89c-29.36-12.86-59.92-34.43-86.99-61.5s-48.63-57.63-61.5-86.99l50.89-50.89-106.07-106.07c-10.83 10.84-64.82 64.82-74.24 74.25-17.16 17.15-11.29 50.14 17.45 98.03 24.65 41.09 63.66 89.14 109.83 135.31s94.22 85.18 135.31 109.83c27.91 16.75 74.92 40.56 98.03 17.45l74.25-74.24z" fill="#61729b"/></g></g></g></g><path d="m444.468 428.075-74.25 74.24c-23.11 23.11-70.12-.7-98.03-17.45-41.09-24.65-89.14-63.66-135.31-109.83l63.64-63.64c27.07 27.07 57.63 48.64 86.99 61.5l50.89-50.89z" fill="#47568c"/><g><path d="m376.908.005c-74.44 0-135 60.56-135 135 0 37.48 15.42 72.44 42.77 97.97l-27.77 37.03h120c74.44 0 135-60.56 135-135s-60.56-135-135-135z" fill="#76e2f8"/></g><path d="m511.908 135.005c0 74.44-60.56 135-135 135v-270c74.44 0 135 60.56 135 135z" fill="#73bcff"/><g><path d="m361.908 120.005h30v30h-30z" fill="#f0f7ff"/></g><path d="m376.908 120.005h15v30h-15z" fill="#dfe7f4"/><g><path d="m301.908 120.005h30v30h-30z" fill="#f0f7ff"/></g><g><g><g><path d="m421.908 120.005h30v30h-30z" fill="#dfe7f4"/></g></g></g></g></svg>