<svg id="Layer_1" enable-background="new 0 0 512 512" height="512" viewBox="0 0 512 512" width="512" xmlns="http://www.w3.org/2000/svg"><g><g fill="#43809f"><path d="m149.265 167.215h-29.198c-2.44 0-4.729 1.187-6.133 3.181l-17.96 25.498-18.942-62.18c-.882-2.896-3.422-4.977-6.437-5.276-3.006-.298-5.913 1.246-7.346 3.914l-18.727 34.864h-13.181c-4.142 0-7.5 3.355-7.5 7.494s3.358 7.494 7.5 7.494h17.667c2.763 0 5.302-1.517 6.608-3.95l12.317-22.932 18.161 59.614c.834 2.74 3.158 4.765 5.988 5.217.397.063.793.095 1.188.095 2.416 0 4.714-1.168 6.132-3.181l24.556-34.864h25.305c4.142 0 7.5-3.355 7.5-7.494s-3.356-7.494-7.498-7.494z"/><path d="m455.152 167.686h-78.997c-4.142 0-7.5 3.355-7.5 7.494s3.358 7.494 7.5 7.494h78.997c4.142 0 7.5-3.355 7.5-7.494s-3.358-7.494-7.5-7.494z"/></g><path d="m466.486 420.302-103.44-103.357c-2.415-2.413-2.415-6.328 0-8.741l34.966-34.937c2.412-2.411 6.322-2.411 8.734 0l103.44 103.356c2.415 2.413 2.415 6.328 0 8.741l-34.965 34.937c-2.413 2.411-6.322 2.411-8.735.001z" fill="#f78e36"/><path d="m398.009 273.27-21.853 21.836c2.414-2.412 6.328-2.412 8.741 0l103.44 103.357c2.414 2.412 2.414 6.322 0 8.734l21.853-21.836c2.414-2.412 2.414-6.322 0-8.734l-103.44-103.357c-2.414-2.412-6.328-2.412-8.741 0z" fill="#f86f1b"/><path d="m341.263 233.274h30.893v67.335h-30.893z" fill="#3b7191" transform="matrix(.707 -.707 .707 .707 -84.304 330.24)"/><path d="m384.234 309.866h61.786v30.893h-61.786z" fill="#7be492" transform="matrix(.707 -.707 .707 .707 -108.468 388.61)"/><path d="m410.607 298.948h30.893v30.893h-30.893z" fill="#45d987" transform="matrix(.707 -.707 .707 .707 -97.49 393.56)"/><ellipse cx="264.688" cy="174.993" fill="#a9dbf5" rx="124.652" ry="124.552"/><path d="m352.83 86.922c-28.231-28.208-66.744-40.026-103.595-35.465 26.592 3.292 52.318 15.11 72.69 35.465 48.602 48.563 48.602 127.58 0 176.143-20.371 20.355-46.098 32.173-72.69 35.464 36.851 4.561 75.364-7.257 103.595-35.464 48.602-48.563 48.602-127.58 0-176.143z" fill="#88c3e0"/><ellipse cx="264.688" cy="174.994" fill="#f3f3f3" rx="93.746" ry="93.671"/><path d="m220.38 454.006h-61.811v-53.523c0-4.55 3.688-8.238 8.238-8.238h45.335c4.55 0 8.238 3.688 8.238 8.238z" fill="#7be492"/><path d="m212.138 392.245h-22.664v61.761h30.905v-53.526c.001-4.548-3.689-8.235-8.241-8.235z" fill="#45d987"/><path d="m96.758 454.006h-61.811v-84.404c0-4.55 3.688-8.238 8.238-8.238h45.335c4.55 0 8.238 3.688 8.238 8.238z" fill="#f78e36"/><path d="m88.516 361.365h-22.664v92.642h30.905v-84.407c.001-4.548-3.689-8.235-8.241-8.235z" fill="#f86f1b"/><path d="m158.569 454.006h-61.811v-125.577c0-4.55 3.688-8.238 8.238-8.238h45.335c4.55 0 8.238 3.688 8.238 8.238z" fill="#29cef6"/><path d="m150.327 320.191h-22.664v133.816h30.905v-125.582c.001-4.548-3.689-8.234-8.241-8.234z" fill="#22b5ed"/><path d="m276.289 167.619c-1.467-.518-2.964-1.057-4.46-1.614v-26.01c2.471.848 4.173 2.004 4.944 2.601 3.273 2.537 7.985 1.941 10.523-1.33 2.538-3.27 1.942-7.978-1.331-10.514-1.911-1.481-6.906-4.849-14.137-6.2v-4.715c0-4.139-3.358-7.494-7.5-7.494s-7.5 3.355-7.5 7.494v5.247c-.584.147-1.173.304-1.77.484-9.231 2.779-16.126 10.656-17.994 20.56-1.711 9.076 1.229 17.85 7.673 22.901 3.123 2.447 6.945 4.691 12.09 7.031v34.106c-3.858-.478-6.69-1.688-11.167-4.615-3.466-2.265-8.114-1.295-10.382 2.168-2.268 3.464-1.296 8.109 2.17 10.374 7.576 4.952 12.885 6.63 19.379 7.144v5.289c0 4.139 3.358 7.494 7.5 7.494s7.5-3.355 7.5-7.494v-5.989c13.153-3.191 21.59-14.352 23.441-25.359 2.4-14.253-5.051-26.64-18.979-31.559zm-22.292-10.385c-1.991-1.56-2.851-4.83-2.19-8.331.514-2.727 2.094-5.908 5.022-7.799v18.068c-1.032-.632-1.989-1.277-2.832-1.938zm26.481 39.457c-.772 4.591-3.708 9.433-8.649 11.969v-26.704c9.679 3.732 9.077 12.192 8.649 14.735z" fill="#ffc328"/><path d="m451.271 446.512h-443.771c-4.142 0-7.5 3.355-7.5 7.494s3.358 7.494 7.5 7.494h443.771c4.142 0 7.5-3.355 7.5-7.494s-3.358-7.494-7.5-7.494z" fill="#43809f"/></g></svg>