<svg height="512" viewBox="0 0 512 512" width="512" xmlns="http://www.w3.org/2000/svg"><g id="FilledOutline"><path d="m304 40v224h-32v-112h-40a16 16 0 0 1 0-32h8a16 16 0 0 0 0-32h-32a16 16 0 0 1 0-32h64v-16a16 16 0 0 1 32 0z" fill="#ef5249"/><path d="m480.33 126.29-131.37 131.38-27.02 27.02-22.63-22.63 79.2-79.2-28.28-28.28a16 16 0 1 1 22.62-22.63l5.66 5.66a16 16 0 1 0 22.63-22.63l-22.63-22.63a16 16 0 1 1 22.63-22.62l45.25 45.25 11.32-11.31a15.995 15.995 0 0 1 22.62 22.62z" fill="#88bf40"/><path d="m304 225.78v38.22h-32v-38.22a72.8 72.8 0 0 1 32 0z" fill="#be382d"/><path d="m348.96 257.67-27.02 27.02-22.63-22.63 27.02-27.02a72.321 72.321 0 0 1 22.63 22.63z" fill="#7ca540"/><path d="m327.6 256.4a56.024 56.024 0 0 0 -66.242-9.674l-143.064-143.059a16 16 0 0 0 -22.627 0 16 16 0 0 0 0 22.627l11.314 11.314-45.255 45.255a16 16 0 0 0 0 22.627 16 16 0 0 0 22.627 0l22.628-22.627a16 16 0 0 1 22.627 22.627l-5.657 5.657a16 16 0 1 0 22.628 22.628l28.284-28.285 63.865 63.866a56.024 56.024 0 0 0 9.672 66.244 56 56 0 0 0 79.2 0 56 56 0 0 0 0-79.2zm-39.6 63.6a24 24 0 0 1 0-48 24 24 0 0 1 0 48z" fill="#ffc119"/><path d="m152 448.965 70.741 29.378a130.744 130.744 0 0 0 95.943 1.06l123.582-47.123a21.624 21.624 0 0 0 12.215-28.131 21.04 21.04 0 0 0 -27.78-11.868l-66.883 28.4a41.742 41.742 0 0 1 -16.311 3.319h.493a20 20 0 0 0 20-20 20 20 0 0 0 -20-20h-62.056a48.44 48.44 0 0 1 -21.66-5.113 178.893 178.893 0 0 0 -80.006-18.887h-52.278v88z" fill="#f5be9a"/><path d="m24 352h128v112h-128z" fill="#0093ba"/><path d="m288 328a32 32 0 1 0 -32-32 32.036 32.036 0 0 0 32 32zm0-48a16 16 0 1 1 -16 16 16.019 16.019 0 0 1 16-16z"/><path d="m208 96h32a8 8 0 0 1 0 16h-8a24 24 0 0 0 0 48h32v59.637h16v-67.637a8 8 0 0 0 -8-8h-40a8 8 0 0 1 0-16h8a24 24 0 0 0 0-48h-32a8 8 0 0 1 0-16h64a8 8 0 0 0 8-8v-16a8 8 0 0 1 16 0v179.637h16v-179.637a24 24 0 0 0 -48 0v8h-56a24 24 0 0 0 0 48z"/><path d="m73.04 218.177a23.843 23.843 0 0 0 16.97-7.03l22.627-22.627a8 8 0 1 1 11.314 11.313l-5.657 5.657a24 24 0 1 0 33.941 33.941l22.628-22.631 54.205 54.205a64.449 64.449 0 0 0 13.677 70.246 64 64 0 0 0 90.51-90.51 64.451 64.451 0 0 0 -70.246-13.677l-139.058-139.054a24 24 0 0 0 -33.941 33.941l5.657 5.657-39.6 39.6a24 24 0 0 0 16.973 40.969zm-5.658-29.657 45.255-45.255a8 8 0 0 0 0-11.314l-11.313-11.313a8 8 0 1 1 11.314-11.314l143.062 143.061a8 8 0 0 0 9.465 1.379 48 48 0 1 1 -19.4 19.4 8 8 0 0 0 -1.379-9.465l-63.866-63.866a8 8 0 0 0 -11.314 0l-28.284 28.285a8 8 0 0 1 -11.314-11.318l5.657-5.657a24 24 0 1 0 -33.941-33.941l-22.624 22.631a8 8 0 0 1 -11.318-11.313z"/><path d="m336.042 236.645 48.125-48.125a8 8 0 0 0 0-11.314l-28.285-28.284a8 8 0 0 1 11.318-11.314l5.657 5.657a24 24 0 0 0 33.941-33.941l-22.631-22.624a8 8 0 0 1 11.313-11.318l45.255 45.255a8 8 0 0 0 11.314 0l11.313-11.313a8 8 0 1 1 11.314 11.314l-127.321 127.32 11.314 11.314 127.321-127.321a24 24 0 1 0 -33.941-33.941l-5.657 5.657-39.6-39.6a24 24 0 1 0 -33.939 33.943l22.627 22.627a8 8 0 0 1 -11.313 11.314l-5.657-5.657a24 24 0 1 0 -33.941 33.941l22.631 22.628-42.468 42.468z"/><path d="m446.012 384.88a28.636 28.636 0 0 0 -22.437.037l-51.722 21.962a28.013 28.013 0 0 0 -27.853-30.879h-62.056a40.63 40.63 0 0 1 -18.082-4.269 187.858 187.858 0 0 0 -83.584-19.731h-20.278a8 8 0 0 0 -8-8h-128v16h120v96h-120v16h128a8 8 0 0 0 8-8v-3.05l59.727 24.8a138.436 138.436 0 0 0 101.807 1.125l123.582-47.123a29.1 29.1 0 0 0 16.339-15.572 29.608 29.608 0 0 0 .47-22.962 29.111 29.111 0 0 0 -15.913-16.338zm.807 32.839a13.21 13.21 0 0 1 -7.4 7.086l-123.585 47.123a122.457 122.457 0 0 1 -90.025-.973l-65.809-27.33v-75.625h20.278a171.771 171.771 0 0 1 76.428 18.042 56.714 56.714 0 0 0 25.238 5.958h62.056a11.993 11.993 0 0 1 .475 23.976c-.323.009-.644.024-.968.024h-95.507v16h95.507c.165 0 .328-.011.493-.012v.012c.558 0 1.111-.021 1.662-.054a49.412 49.412 0 0 0 17.282-3.9l66.878-28.4a12.759 12.759 0 0 1 9.994-.015 13.235 13.235 0 0 1 7.22 7.446 13.727 13.727 0 0 1 -.217 10.642z"/><path d="m112 424h16v16h-16z"/><path d="m391.867 197.394h105.766v16h-105.766z" transform="matrix(.707 -.707 .707 .707 -14.971 374.644)"/><path d="m383.853 250.468h15.648v16h-15.648z" transform="matrix(.707 -.707 .707 .707 -68.045 352.661)"/></g></svg>