<svg height="511pt" viewBox="0 -9 512 511" width="511pt" xmlns="http://www.w3.org/2000/svg"><path d="M244 273h12a7 7 0 100-15h-10v-19a7 7 0 10-15 0v20c0 8 6 14 13 14zm0 0M217 216c-3-3-7-3-10 0a25 25 0 01-36 0 8 8 0 00-11 11 40 40 0 0057 0c3-3 3-8 0-11zm0 0M306 239c10 0 20-4 28-12a8 8 0 00-10-11 25 25 0 01-36 0 8 8 0 00-11 11c8 8 18 12 29 12zm0 0M207 289c-2 3-2 8 1 11a56 56 0 0079 0 8 8 0 00-11-11 41 41 0 01-58 0c-3-3-8-3-11 0zm0 0M415 171c13 5 16 8 21 21 2 4 6 7 10 7s8-3 10-7c5-13 8-16 21-21 4-1 6-5 6-9s-2-8-6-10c-13-5-16-8-21-21-2-4-6-6-10-6s-8 2-10 6c-5 13-8 16-21 21-4 2-6 5-6 10 0 4 2 8 6 9zm31-25c4 7 8 12 16 16-8 4-12 8-16 15-4-7-9-11-16-15 7-4 12-9 16-16zm0 0M31 172c13 5 16 8 21 21 2 4 6 6 10 6s8-2 10-6c5-13 8-16 21-21 4-2 6-6 6-10s-2-8-6-10c-13-5-16-8-21-21-2-4-6-6-10-6s-8 2-10 6c-5 13-8 16-21 21-4 2-6 6-6 10s2 8 6 10zm31-26c4 8 9 12 16 16-7 4-12 8-16 16-4-8-8-12-16-16 8-4 12-8 16-16zm0 0M80 57c10 4 12 6 16 17 1 3 5 6 9 6s8-3 9-6c4-11 6-13 16-17 4-1 6-5 6-9s-2-7-6-9c-10-4-12-6-16-16-1-4-5-6-9-6s-8 2-9 6c-4 10-6 12-16 16-4 2-7 5-7 9s3 8 7 9zm25-19c3 5 6 8 10 10l-10 10-10-10c4-2 7-5 10-10zm0 0"/><path d="M508 436l-5-5a8 8 0 00-10 10l3 4-33 33-34-33c-2-2-5-3-7-2a40 40 0 01-39-10l-72-72-1-2 1-2h4l41 40c3 3 8 3 11 0l6-6a7 7 0 000-10l-55-54-1-2 1-3h5l54 54c3 3 8 3 11 0l6-6a8 8 0 000-10l-55-54-1-2 1-2c2-2 4-2 5 0l54 54c3 2 8 2 11 0l6-7a7 7 0 000-10l-41-41-1-2 1-2h4l53 52a7 7 0 0012-5v-19c0-3 3-6 6-6s6 3 6 6v47l1 4c6 9 7 21 5 31-1 3 0 5 1 7l6 6a7 7 0 1010-11l-2-2c2-13 0-26-6-37v-45a21 21 0 00-42 0v1l-23-24a52 52 0 00-6-33c2-4 4-9 4-14v-25c0-10-6-20-15-24v-30a112 112 0 00-65-104 76 76 0 00-152 0l-22 14c-28 23-42 54-42 90v30c-9 4-15 14-15 24v25c0 8 3 15 8 20l-2 40c-3 0-5 1-7 3l-10 10a12 12 0 00-1 17L5 425a17 17 0 000 24 17 17 0 0024 0l83-75a12 12 0 0017-1l10-10 4-7 43-2 4-1 20 7v14h-50c-45 0-81 36-81 81v26c0 7 5 13 12 13h312c7 0 13-6 13-13v-22l5-1 32 32a13 13 0 0019 0l36-36a13 13 0 000-18zm-223-76l10-3v2c0 5 2 9 5 13l2 2h-17zm104-77a18 18 0 00-26 0c-3 3-4 7-5 12l-4-4a18 18 0 00-25 0 18 18 0 00-5 16 18 18 0 00-5 0c-2-5-4-10-4-16 0-21 17-37 38-37 18 0 33 13 36 30zm-1-31c-6-5-14-9-22-12v-26h9c7 0 13 6 13 13zM247 15c29 0 53 20 60 47a176 176 0 00-119 0c6-27 30-47 59-47zM107 227c0-7 6-13 13-13h9v40a83 83 0 00-21 4l-1-6zM19 438h-1-1a2 2 0 01-2-1l1-2 75-83 11 11zm101-77l-27-27 7-7 27 27zm64-22l-48 3-1-1 27-16a7 7 0 10-8-13l-30 18 18-30a8 8 0 00-13-7l-16 26h-1l3-48 15-2c16 0 30 6 40 16 13 13 18 33 14 54zm-4-65a69 69 0 00-36-19v-69h29a7 7 0 100-15h-31c-7 0-13 6-13 13v15h-7v-26c0-32 12-59 36-78 22-18 54-28 89-28s67 10 89 28c24 19 37 46 37 78v26h-7v-15c0-7-6-13-14-13h-32c-13 0-26-7-33-19-3-4-7-6-12-6s-9 2-12 6c-7 12-20 19-33 19h-22a7 7 0 100 15h22c18 0 35-9 45-24 10 15 27 24 45 24h31v53a52 52 0 00-45 75 18 18 0 000 21c-13 8-29 13-46 13h-26c-12 0-24-3-35-8 5-25-2-49-19-66zm30 115c8 0 15-7 15-15v-12l9 1h26l10-1v12c0 8 6 15 14 15h2l-39 59-39-59zM94 479v-24c0-37 29-66 66-66h1l59 90zm181 0l17-26a7 7 0 00-13-8l-17 26c-3 4-7 7-12 8h-6c-5-1-9-4-11-8l-54-82h12l50 77a8 8 0 0012 0l51-77h12l-18 27a8 8 0 0012 8l17-25 45 44c8 8 18 13 29 15v21zm0 0"/></svg>