<svg id="Layer_5" enable-background="new 0 0 64 64" height="512" viewBox="0 0 64 64" width="512" xmlns="http://www.w3.org/2000/svg"><g><g><g><path d="m22 31c-2.21 0-4 1.79-4 4v4h-16v-1.51c0-2.83.91-5.51 2.49-7.7 1.57-2.19 3.83-3.89 6.51-4.79v1c0 1.66 1.34 3 3 3 .83 0 1.58-.34 2.12-.88s.88-1.29.88-2.12v-1c2.18.73 4.08 1.99 5.56 3.61-.01.13-.02.25-.03.38l-.11 2.01z" fill="#4fc1e9"/></g><g><path d="m9 11v2h-1c-.82 0-1.56.33-2.1.86-.59-1.14-.9-2.42-.9-3.72 0-4.49 3.65-8.14 8.14-8.14h1.03c1.77 0 3.42.88 4.4 2.35l.43.65c2.35.59 4 2.7 4 5.12v1.03c0 1-.28 1.97-.81 2.81-.54-.59-1.32-.96-2.19-.96h-1-2-6c-1.1 0-2-.9-2-2z" fill="#b27946"/></g><g><path d="m62 37.49v1.51h-16v-4c0-2.21-1.79-4-4-4h-.42l-.11-2.01c-.01-.13-.02-.25-.03-.38 1.48-1.62 3.38-2.88 5.56-3.61v1c0 1.66 1.34 3 3 3 .83 0 1.58-.34 2.12-.88s.88-1.29.88-2.12v-1c2.8.93 5.13 2.75 6.71 5.08 1.46 2.13 2.29 4.7 2.29 7.41z" fill="#ff826e"/></g><g><path d="m45 19c0 1.7 1.06 3.16 2.57 3.73v.01l-.57 2.26c-2.18.73-4.08 1.99-5.56 3.61-.12-1.34-.52-2.6-1.14-3.71.38-.47.7-1.01.7-1.91 0-2.24-2-2.24-2-4.49 0-1.83 1.32-2.17 1.82-3.44l.32.05c-.09.28-.14.58-.14.89 0 .83.34 1.58.88 2.12s1.29.88 2.12.88z" fill="#656d78"/></g><g><path d="m59 14c0 .42.07.76.18 1.06l-.32.05c-.37-1.23-1.51-2.11-2.86-2.11h-1-1.54c-.95 0-1.88-.28-2.68-.81l-1.78-1.19-.59.59c-.9.9-2.13 1.41-3.41 1.41h-1c-1.35 0-2.49.88-2.86 2.11l-.32-.05c.11-.3.18-.64.18-1.06v-3c0-2.48 1.01-4.74 2.64-6.36 1.62-1.63 3.88-2.64 6.36-2.64 4.97 0 9 4.03 9 9z" fill="#656d78"/></g><g><path d="m59.18 15.06c.5 1.27 1.82 1.61 1.82 3.44 0 2.25-2 2.25-2 4.49 0 2.26 2 2.26 2 4.51 0 1.34-.71 1.88-1.29 2.58-1.58-2.33-3.91-4.15-6.71-5.08l-.57-2.26v-.01c1.51-.57 2.57-2.03 2.57-3.73h1c.83 0 1.58-.34 2.12-.88s.88-1.29.88-2.12c0-.31-.05-.61-.14-.89z" fill="#656d78"/></g><g><path d="m22 39s2.85 1.42 5.93 2.31c-3.06.99-5.67 2.87-7.57 5.31-.99 1.27-1.79 2.69-2.36 4.21v-11.83-4c0-2.21 1.79-4 4-4h.42z" fill="#aab2bd"/></g><g><path d="m46 39v11.07c-.82-1.67-1.9-3.19-3.2-4.5-1.85-1.89-4.16-3.37-6.75-4.25 3.09-.89 5.95-2.32 5.95-2.32l-.42-8h.42c2.21 0 4 1.79 4 4z" fill="#aab2bd"/></g><g><path d="m46.87 62h-11c1.81 0 3.35-1.31 3.64-3.09l.72-4.29 1.41 3.75c.41 1.09 1.14 2 2.05 2.64.91.63 2.01.99 3.18.99z" fill="#b4dd7f"/></g><g><path d="m29 42c0 1.66 1.34 3 3 3v1h-5.31c-2.04 0-3.69 1.65-3.69 3.69 0 .21.02.41.05.61l.95 5.7.49 2.91c.29 1.78 1.83 3.09 3.64 3.09h-5.5c-1.55 0-2.96-.63-3.98-1.65s-1.65-2.43-1.65-3.98c0-1.94.35-3.81 1-5.54.57-1.52 1.37-2.94 2.36-4.21 1.9-2.44 4.51-4.32 7.57-5.31.35-.12.71-.22 1.07-.31z" fill="#b4dd7f"/></g><g><path d="m37.31 46h-5.31v-1c.83 0 1.58-.34 2.12-.88s.88-1.29.88-2.12v-1c.35.1.7.2 1.04.32h.01c2.59.88 4.9 2.36 6.75 4.25 1.3 1.31 2.38 2.83 3.2 4.5.52 1.05.93 2.16 1.23 3.31l3.89-6.32 3.88 1.94-2.79 9.06c-.72 2.34-2.88 3.94-5.34 3.94-1.17 0-2.27-.36-3.18-.99-.91-.64-1.64-1.55-2.05-2.64l-1.41-3.75.72-4.32c.03-.2.05-.4.05-.61 0-1.02-.41-1.94-1.08-2.61s-1.59-1.08-2.61-1.08z" fill="#b4dd7f"/></g><g><path d="m27.93 41.31c-3.08-.89-5.93-2.31-5.93-2.31l.42-8 .11-2.01c.01-.13.02-.25.03-.38.44-4.86 4.52-8.61 9.44-8.61 2.52 0 4.83.99 6.53 2.6.7.67 1.31 1.44 1.77 2.3.62 1.11 1.02 2.37 1.14 3.71.01.13.02.25.03.38l.11 2.01.42 8s-2.86 1.43-5.95 2.32h-.01c-.34-.12-.69-.22-1.04-.32l-.39-2.34v-.01c1.41-.61 2.39-2.01 2.39-3.65v-4.57c0-.79-.64-1.43-1.43-1.43h-7.14c-.79 0-1.43.64-1.43 1.43v4.57c0 1.7 1.06 3.16 2.57 3.73l-.57 2.27c-.36.09-.72.19-1.07.31z" fill="#fcd770"/></g><g><path d="m22.19 13.96c.5.53.81 1.25.81 2.04 0 .83-.34 1.58-.88 2.12s-1.29.88-2.12.88h-1v-6h1c.87 0 1.65.37 2.19.96z" fill="#f0d0b4"/></g><g><path d="m17 25v1c0 .83-.34 1.58-.88 2.12s-1.29.88-2.12.88c-1.66 0-3-1.34-3-3v-1l.57-2.27c.44.18.92.27 1.43.27h2c.5 0 .99-.09 1.43-.27z" fill="#f0d0b4"/></g><g><path d="m19 13v6c0 1.7-1.06 3.16-2.57 3.73-.44.18-.93.27-1.43.27h-2c-.51 0-.99-.09-1.43-.27-1.51-.57-2.57-2.03-2.57-3.73v-6-2c0 1.1.9 2 2 2h6z" fill="#f0d0b4"/></g><g><path d="m9 13v6h-1c-.83 0-1.58-.34-2.12-.88s-.88-1.29-.88-2.12c0-.84.34-1.6.9-2.14.54-.53 1.28-.86 2.1-.86z" fill="#f0d0b4"/></g><g><path d="m56 13c1.35 0 2.49.88 2.86 2.11.09.28.14.58.14.89 0 .83-.34 1.58-.88 2.12s-1.29.88-2.12.88h-1v-6z" fill="#f0d0b4"/></g><g><path d="m45 13v6h-1c-.83 0-1.58-.34-2.12-.88s-.88-1.29-.88-2.12c0-.31.05-.61.14-.89.37-1.23 1.51-2.11 2.86-2.11z" fill="#f0d0b4"/></g><g><path d="m53 25v1c0 .83-.34 1.58-.88 2.12s-1.29.88-2.12.88c-1.66 0-3-1.34-3-3v-1l.57-2.26v-.01c.44.18.92.27 1.43.27h2c.5 0 .99-.09 1.43-.27v.01z" fill="#f0d0b4"/></g><g><path d="m55 13v6c0 1.7-1.06 3.16-2.57 3.73-.44.18-.93.27-1.43.27h-2c-.51 0-.99-.09-1.43-.27-1.51-.57-2.57-2.03-2.57-3.73v-6c1.28 0 2.51-.51 3.41-1.41l.59-.59 1.78 1.19c.8.53 1.73.81 2.68.81z" fill="#f0d0b4"/></g><g><path d="m58 45c1.1 0 2 .9 2 2 0 .55-.22 1.05-.59 1.41-.36.37-.86.59-1.41.59h-3l-3.88-1.94.98-1.59c.56-.91 1.55-1.47 2.62-1.47.82 0 1.6.32 2.18.9l.1.1z" fill="#f0d0b4"/></g><g><path d="m29.57 38.73c.44.18.92.27 1.43.27h2c.57 0 1.12-.12 1.61-.35v.01l.39 2.34v1c0 .83-.34 1.58-.88 2.12s-1.29.88-2.12.88c-1.66 0-3-1.34-3-3v-1z" fill="#f0d0b4"/></g><g><path d="m37 30.43v4.57c0 1.64-.98 3.04-2.39 3.65-.49.23-1.04.35-1.61.35h-2c-.51 0-.99-.09-1.43-.27-1.51-.57-2.57-2.03-2.57-3.73v-4.57c0-.79.64-1.43 1.43-1.43h7.14c.79 0 1.43.64 1.43 1.43z" fill="#f0d0b4"/></g><g><path d="m41 49.69c0 .21-.02.41-.05.61l-.72 4.32-.72 4.29c-.29 1.78-1.83 3.09-3.64 3.09h-7.74c-1.81 0-3.35-1.31-3.64-3.09l-.49-2.91-.95-5.7c-.03-.2-.05-.4-.05-.61 0-2.04 1.65-3.69 3.69-3.69h5.31 5.31c1.02 0 1.94.41 2.61 1.08s1.08 1.59 1.08 2.61z" fill="#ccd1d9"/></g><g><circle cx="32" cy="52" fill="#69d6f4" r="2"/></g></g><g><path d="m32 49c-1.654 0-3 1.346-3 3s1.346 3 3 3 3-1.346 3-3-1.346-3-3-3zm0 4c-.551 0-1-.448-1-1s.449-1 1-1 1 .448 1 1-.449 1-1 1z"/><path d="m47 40h16v-2.513c0-2.649-.737-5.161-2.039-7.319.491-.574 1.039-1.36 1.039-2.67 0-1.506-.724-2.321-1.252-2.916-.451-.507-.748-.841-.748-1.587 0-.745.297-1.079.748-1.585.528-.595 1.252-1.41 1.252-2.914s-.724-2.318-1.253-2.913c-.45-.506-.747-.84-.747-1.583v-3c0-5.514-4.486-10-10-10s-10 4.486-10 10v3c0 .743-.297 1.077-.747 1.583-.529.594-1.253 1.408-1.253 2.913s.724 2.319 1.252 2.914c.376.423.634.74.712 1.261-1.927-2.25-4.785-3.671-7.964-3.671-4.781 0-8.835 3.21-10.083 7.634-1.215-1.016-2.591-1.835-4.077-2.396l-.246-.985c1.164-.713 2.023-1.873 2.305-3.253h.101c2.206 0 4-1.794 4-4 0-.786-.236-1.515-.63-2.135.408-.847.63-1.771.63-2.718v-1.024c0-2.752-1.779-5.159-4.372-5.984l-.228-.342c-1.168-1.752-3.121-2.797-5.226-2.797h-1.03c-5.042 0-9.144 4.102-9.144 9.144 0 1.22.263 2.433.737 3.557-.461.651-.737 1.442-.737 2.299 0 2.206 1.794 4 4 4h.101c.281 1.38 1.141 2.541 2.305 3.253l-.246.984c-5.502 2.075-9.16 7.33-9.16 13.25v2.513h16v10.664c-.644 1.792-1 3.712-1 5.705 0 3.656 2.975 6.631 6.631 6.631h5.499 7.741 11.129v-.01c2.856-.055 5.326-1.9 6.169-4.64l2.57-8.35h2.261c1.654 0 3-1.346 3-3s-1.346-3-3-3h-.6c-.743-.646-1.683-1-2.677-1-1.407 0-2.74.745-3.477 1.943l-3.739 6.075c-.157-.396-.324-.788-.507-1.171zm-8.156 1.439c2.008-.752 3.517-1.501 3.604-1.544l.586-.293-.396-7.53c1.348.293 2.362 1.493 2.362 2.928v11.596c-1.64-2.141-3.74-3.908-6.156-5.157zm-5.844-3.439h-2c-1.654 0-3-1.346-3-3v-4.57c0-.237.193-.43.43-.43h7.141c.237 0 .43.193.43.43v4.57c-.001 1.654-1.347 3-3.001 3zm-2 2h2c.276 0 .542-.038.806-.081l.194 1.164v.917c0 1.103-.897 2-2 2s-2-.897-2-2v-.877l.299-1.194c.231.033.461.071.701.071zm30-2h-14v-3c0-2.575-1.965-4.677-4.469-4.946l-.055-1.051c1.029-1.054 2.237-1.918 3.572-2.538.232 1.984 1.905 3.535 3.952 3.535s3.721-1.552 3.953-3.538c4.263 1.974 7.047 6.243 7.047 11.025zm-10-16h-2c-1.654 0-3-1.346-3-3v-5.085c1.176-.202 2.26-.761 3.121-1.622l.006-.006 1.102.734c.96.641 2.078.979 3.233.979h.538v5c0 1.654-1.346 3-3 3zm-2 2h2c.24 0 .47-.038.701-.071l.299 1.194v.877c0 1.103-.897 2-2 2s-2-.897-2-2v-.877l.299-1.194c.231.033.461.071.701.071zm10.253-3.919c-.529.594-1.253 1.409-1.253 2.914s.724 2.32 1.252 2.915c.451.507.748.842.748 1.588 0 .412-.098.697-.255.957-1.537-1.856-3.55-3.33-5.905-4.217l-.246-.984c1.164-.713 2.024-1.874 2.305-3.253h.101c1.68 0 3.115-1.044 3.707-2.515.179.274.293.568.293 1.01 0 .744-.297 1.079-.747 1.585zm-3.253-6.081c1.103 0 2 .897 2 2s-.897 2-2 2zm-6-11c4.411 0 8 3.589 8 8v1.556c-.591-.344-1.268-.556-2-.556h-1-1.538c-.758 0-1.493-.222-2.124-.643l-2.466-1.644-1.166 1.166c-.722.723-1.684 1.121-2.706 1.121h-1c-.732 0-1.409.212-2 .556v-1.556c0-4.411 3.589-8 8-8zm-8 13c0-1.103.897-2 2-2v4c-1.103 0-2-.897-2-2zm-1.253 4.081c-.45-.506-.747-.841-.747-1.585 0-.441.114-.736.293-1.01.592 1.47 2.027 2.514 3.707 2.514h.101c.281 1.38 1.141 2.541 2.305 3.253l-.246.984c-1.486.562-2.862 1.381-4.077 2.396-.162-.575-.366-1.133-.619-1.662.292-.482.536-1.107.536-1.976 0-1.505-.724-2.32-1.253-2.914zm-8.747.919c4.515 0 8.237 3.532 8.475 8.041l.492 9.344c-.935.432-2.869 1.275-4.919 1.888-.055-.018-.108-.04-.164-.057l-.171-1.027c1.372-.892 2.287-2.433 2.287-4.189v-4.57c0-1.34-1.09-2.43-2.43-2.43h-7.14c-1.34 0-2.43 1.09-2.43 2.43v4.57c0 1.804.97 3.374 2.406 4.253l-.234.934c-.081.023-.157.055-.238.079-2.044-.612-3.969-1.452-4.901-1.882l.492-9.344c.238-4.508 3.96-8.04 8.475-8.04zm-12-3v-4c1.103 0 2 .897 2 2s-.897 2-2 2zm-14-2c0-1.103.897-2 2-2v4c-1.103 0-2-.897-2-2zm2-5v1c-.584 0-1.135.133-1.635.358-.234-.715-.365-1.463-.365-2.214 0-3.939 3.205-7.144 7.144-7.144h1.03c1.435 0 2.766.712 3.562 1.906l.646.97.375.094c1.91.478 3.243 2.185 3.243 4.153v1.024c0 .443-.075.878-.208 1.296-.541-.274-1.145-.443-1.792-.443h-1-8c-.551 0-1-.449-1-1s.449-1 1-1h2v-2h-2c-1.654 0-3 1.346-3 3zm2 2.829c.313.11.649.171 1 .171h7v5c0 1.654-1.346 3-3 3h-2c-1.654 0-3-1.346-3-3zm3 10.171h2c.24 0 .47-.038.702-.071l.298 1.194v.877c0 1.103-.897 2-2 2s-2-.897-2-2v-.877l.299-1.194c.231.033.461.071.701.071zm-10 14v-.513c0-4.782 2.784-9.051 7.047-11.025.232 1.986 1.906 3.538 3.953 3.538s3.72-1.551 3.953-3.536c1.334.62 2.542 1.484 3.572 2.538l-.055 1.052c-2.505.269-4.47 2.371-4.47 4.946v3zm16-3c0-1.435 1.014-2.635 2.363-2.929l-.396 7.53.586.293c.086.043 1.57.78 3.553 1.525-2.472 1.276-4.557 3.128-6.106 5.367zm-1 21.369c0-6.399 4.067-12.005 10.033-14.042.088 1.066.588 2.008 1.349 2.673h-2.688c-2.588 0-4.694 2.105-4.694 4.694 0 .259.021.517.064.771l.756 4.535h-2.82v2h3.153l.346 2.077c.12.718.409 1.362.803 1.923h-1.671c-2.554 0-4.631-2.077-4.631-4.631zm10.129 4.631c-1.323 0-2.44-.947-2.658-2.251l-1.435-8.612c-.024-.147-.036-.295-.036-.443 0-1.485 1.208-2.694 2.694-2.694h10.611c1.487 0 2.695 1.209 2.695 2.694 0 .147-.012.296-.037.443l-1.435 8.611c-.217 1.305-1.335 2.252-2.657 2.252zm12.575-2.274c.326.87.84 1.633 1.469 2.274h-2.474c.394-.561.684-1.205.803-1.923l.103-.618zm5.148-1.202 7.097-11.533c.376-.611 1.056-.991 1.774-.991.556 0 1.08.217 1.475.612l.389.388h1.413c.551 0 1 .448 1 1s-.449 1-1 1h-3.739l-3.003 9.762c-.596 1.936-2.359 3.238-4.385 3.238-1.902 0-3.628-1.196-4.296-2.977l-1.315-3.508.675-4.048c.042-.256.063-.514.063-.773 0-2.589-2.106-4.694-4.694-4.694h-2.688c.754-.659 1.251-1.589 1.346-2.642 4.919 1.77 8.731 5.822 10.181 10.874l-1.996 3.243z"/></g></g></svg>