<svg height="512" viewBox="0 0 64 64" width="512" xmlns="http://www.w3.org/2000/svg"><g id="Interconnection-Network-Team-Business-Strategy"><g fill="#ff9811"><path d="m31 18h2v5h-2z"/><path d="m31 41h2v5h-2z"/><path d="m22.224 38.775h4.002v2h-4.002z" transform="matrix(.707 -.707 .707 .707 -21.03 28.78)"/><path d="m37.774 23.225h4.002v2h-4.002z" transform="matrix(.707 -.707 .707 .707 -5.48 35.221)"/><path d="m38.775 37.774h2v4.002h-2z" transform="matrix(.707 -.707 .707 .707 -16.475 39.775)"/><path d="m23.225 22.224h2v4.002h-2z" transform="matrix(.707 -.707 .707 .707 -10.034 24.225)"/></g><path d="m47.18 50.88-1.4.93a4 4 0 0 0 -1.78 3.33v1.86h6v-3z" fill="#1e81ce"/><path d="m56 55.14a4 4 0 0 0 -1.78-3.33l-1.4-.93-2.82 3.12v3h6z" fill="#3d9ae2"/><path d="m50 50a2.915 2.915 0 0 0 1.15-.23l1.67 1.11-2.82 3.12-2.82-3.12 1.67-1.11a2.915 2.915 0 0 0 1.15.23z" fill="#ffb655"/><path d="m51 44-1.41 1.41a2.006 2.006 0 0 1 -1.42.59h-1.17v-2a3 3 0 0 1 6 0v2z" fill="#57565c"/><path d="m51 44-1.41 1.41a2.006 2.006 0 0 1 -1.42.59h-1.17v1a3 3 0 0 0 6 0v-1z" fill="#ffc477"/><path d="m29.18 12.88-1.4.93a4 4 0 0 0 -1.78 3.33v1.86h6v-3z" fill="#1e81ce"/><path d="m38 17.14a4 4 0 0 0 -1.78-3.33l-1.4-.93-2.82 3.12v3h6z" fill="#3d9ae2"/><path d="m32 12a2.915 2.915 0 0 0 1.15-.23l1.67 1.11-2.82 3.12-2.82-3.12 1.67-1.11a2.915 2.915 0 0 0 1.15.23z" fill="#ffb655"/><path d="m33 6-1.41 1.41a2.006 2.006 0 0 1 -1.42.59h-1.17v-2a3 3 0 0 1 6 0v2z" fill="#57565c"/><path d="m33 6-1.41 1.41a2.006 2.006 0 0 1 -1.42.59h-1.17v1a3 3 0 0 0 6 0v-1z" fill="#ffc477"/><path d="m47.18 14.88-1.4.93a4 4 0 0 0 -1.78 3.33v1.86h6v-3z" fill="#1e81ce"/><path d="m56 19.14a4 4 0 0 0 -1.78-3.33l-1.4-.93-2.82 3.12v3h6z" fill="#3d9ae2"/><path d="m50 14a2.915 2.915 0 0 0 1.15-.23l1.67 1.11-2.82 3.12-2.82-3.12 1.67-1.11a2.915 2.915 0 0 0 1.15.23z" fill="#ffb655"/><path d="m51 8-1.41 1.41a2.006 2.006 0 0 1 -1.42.59h-1.17v-2a3 3 0 0 1 6 0v2z" fill="#57565c"/><path d="m51 8-1.41 1.41a2.006 2.006 0 0 1 -1.42.59h-1.17v1a3 3 0 0 0 6 0v-1z" fill="#ffc477"/><path d="m38.36 25.64a8.981 8.981 0 1 1 -6.36-2.64 8.954 8.954 0 0 1 6.36 2.64z" fill="#ffd422"/><path d="m11.18 14.88-1.4.93a4 4 0 0 0 -1.78 3.33v1.86h6v-3z" fill="#1e81ce"/><path d="m20 19.14a4 4 0 0 0 -1.78-3.33l-1.4-.93-2.82 3.12v3h6z" fill="#3d9ae2"/><path d="m14 14a2.915 2.915 0 0 0 1.15-.23l1.67 1.11-2.82 3.12-2.82-3.12 1.67-1.11a2.915 2.915 0 0 0 1.15.23z" fill="#ffb655"/><path d="m15 8-1.41 1.41a2.006 2.006 0 0 1 -1.42.59h-1.17v-2a3 3 0 0 1 6 0v2z" fill="#57565c"/><path d="m15 8-1.41 1.41a2.006 2.006 0 0 1 -1.42.59h-1.17v1a3 3 0 0 0 6 0v-1z" fill="#ffc477"/><path d="m29.18 54.88-1.4.93a4 4 0 0 0 -1.78 3.33v1.86h6v-3z" fill="#1e81ce"/><path d="m38 59.14a4 4 0 0 0 -1.78-3.33l-1.4-.93-2.82 3.12v3h6z" fill="#3d9ae2"/><path d="m32 54a2.915 2.915 0 0 0 1.15-.23l1.67 1.11-2.82 3.12-2.82-3.12 1.67-1.11a2.915 2.915 0 0 0 1.15.23z" fill="#ffb655"/><path d="m33 48-1.41 1.41a2.006 2.006 0 0 1 -1.42.59h-1.17v-2a3 3 0 0 1 6 0v2z" fill="#57565c"/><path d="m33 48-1.41 1.41a2.006 2.006 0 0 1 -1.42.59h-1.17v1a3 3 0 0 0 6 0v-1z" fill="#ffc477"/><path d="m11.18 50.88-1.4.93a4 4 0 0 0 -1.78 3.33v1.86h6v-3z" fill="#1e81ce"/><path d="m20 55.14a4 4 0 0 0 -1.78-3.33l-1.4-.93-2.82 3.12v3h6z" fill="#3d9ae2"/><path d="m14 50a2.915 2.915 0 0 0 1.15-.23l1.67 1.11-2.82 3.12-2.82-3.12 1.67-1.11a2.915 2.915 0 0 0 1.15.23z" fill="#ffb655"/><path d="m15 44-1.41 1.41a2.006 2.006 0 0 1 -1.42.59h-1.17v-2a3 3 0 0 1 6 0v2z" fill="#57565c"/><path d="m15 44-1.41 1.41a2.006 2.006 0 0 1 -1.42.59h-1.17v1a3 3 0 0 0 6 0v-1z" fill="#ffc477"/><path d="m33 31h-2a1 1 0 0 1 0-2h2a1 1 0 0 1 1 1h2a3 3 0 0 0 -3-3v-1h-2v1a3 3 0 0 0 0 6h2a1 1 0 0 1 0 2h-2a1 1 0 0 1 -1-1h-2a3 3 0 0 0 3 3v1h2v-1a3 3 0 0 0 0-6z" fill="#ed1c24"/><path d="m43.8 39.539-1.684-1.078a12.008 12.008 0 0 0 .04-12.858l1.692-1.068a14.01 14.01 0 0 1 -.048 15z" fill="#ffa733"/><path d="m20.2 39.539a14.012 14.012 0 0 1 -.047-15l1.693 1.061a12.008 12.008 0 0 0 .04 12.858z" fill="#ffa733"/><path d="m32 42a10 10 0 1 1 10-10 10.011 10.011 0 0 1 -10 10zm0-18a8 8 0 1 0 8 8 8.009 8.009 0 0 0 -8-8z" fill="#ffa733"/></g></svg>