<svg id="Capa_1" enable-background="new 0 0 512 512" height="512" viewBox="0 0 512 512" width="512" xmlns="http://www.w3.org/2000/svg"><g><g><g><g><path d="m436 210c-8.291 0-15-6.709-15-15 0-90.981-74.033-165-165-165s-165 74.019-165 165c0 8.291-6.709 15-15 15s-15-6.709-15-15c0-107.52 87.48-195 195-195s195 87.48 195 195c0 8.291-6.709 15-15 15z" fill="#5c6699"/></g></g></g><path d="m421 195c0 8.291 6.709 15 15 15s15-6.709 15-15c0-107.52-87.48-195-195-195v30c90.967 0 165 74.019 165 165z" fill="#404a80"/><g id="News_Reporter_2_"><g><path d="m106 270c-25.664 0-45-32.241-45-75s19.336-75 45-75 45 32.241 45 75-19.336 75-45 75z" fill="#5c6699"/></g></g><g><path d="m406 270c-25.664 0-45-32.241-45-75s19.336-75 45-75 45 32.241 45 75-19.336 75-45 75z" fill="#404a80"/></g><g><path d="m291.156 318.105c-4.219-3.311-6.328-8.584-5.596-13.887.831-5.697.219-2.499.439-19.219 0-16.538-13.447-30-30-30s-30 13.462-30 30c.222 16.863-.387 13.555.439 19.219.732 5.303-1.377 10.576-5.596 13.887-4.248 3.281-9.814 4.087-14.824 2.124-51.649-20.595-85.018-69.741-85.018-125.229 0-74.443 60.557-135 135-135s135 60.557 135 135c0 55.488-33.369 104.634-85.02 125.229-5.058 1.999-10.624 1.141-14.824-2.124z" fill="#fdc"/></g><path d="m286 285c-.222 16.863.387 13.555-.439 19.219-.732 5.303 1.377 10.576 5.596 13.887 4.193 3.259 9.758 4.126 14.824 2.124 51.65-20.596 85.019-69.742 85.019-125.23 0-74.443-60.557-135-135-135v195c16.553 0 30 13.462 30 30z" fill="#ffbfab"/><g><g><path d="m286 390h-60c-8.401 0-15 6.599-15 15l-30 48.83 30 58.17h90l30-56.974-30-50.026c0-8.401-6.599-15-15-15z" fill="#80bfff"/></g></g><path d="m256 512h45l30-56.974-30-50.026c0-8.401-6.599-15-15-15h-30z" fill="#69f"/><g><g><path d="m256 360c-29.736 0-55.225-22.207-59.268-51.65-1.268-9.166-.47-7.979-.732-23.35 0-33.091 26.924-60 60-60s60 26.909 60 60c-.266 15.56.532 14.142-.732 23.379-4.043 29.414-29.532 51.621-59.268 51.621z" fill="#5c6699"/></g></g><g><path d="m315.268 308.379c1.272-9.292.47-8.013.732-23.379 0-33.091-26.924-60-60-60v135c29.736 0 55.225-22.207 59.268-51.621z" fill="#404a80"/></g><g><g><g><path d="m451 465v32c0 8.401-6.599 15-15 15h-135v-107c0-8.401-6.599-15-15-15h-60c-8.401 0-15 6.599-15 15v107h-135c-8.401 0-15-6.599-15-15v-32c0-74.399 60.601-135 135-135h120c74.399 0 135 60.601 135 135z" fill="#5c6699"/></g></g></g><path d="m256 390h30c8.401 0 15 6.599 15 15v107h135c8.401 0 15-6.599 15-15v-32c0-74.399-60.601-135-135-135h-60z" fill="#404a80"/><g><path d="m316 420h-120c-8.291 0-15-6.709-15-15v-60c0-8.291 6.709-15 15-15h120c8.291 0 15 6.709 15 15v60c0 8.291-6.709 15-15 15z" fill="#edf5ff"/></g><path d="m256 420h60c8.291 0 15-6.709 15-15v-60c0-8.291-6.709-15-15-15h-60z" fill="#d5e8fe"/></g></svg>