<svg id="Capa_1" enable-background="new 0 0 512 512" height="512" viewBox="0 0 512 512" width="512" xmlns="http://www.w3.org/2000/svg"><g><path d="m0 0v60l30 15h136v-75z" fill="#fb3"/><path d="m331 60v-60h-165v75h135z" fill="#f93"/><path d="m331 90v121h-331v-121l30-15h271z" fill="#fb3"/><path d="m331 90v121h-165v-136h135z" fill="#f93"/><path d="m166 331 18.882-30h162.118v90h-181z" fill="#f89580"/><path d="m76.8 273.1c-17.999-18.001-47.701-20.7-65.7-3.001-.3 0-11.1 11.1-11.1 11.1l131.499 130.201c9.84 9.838 21.639 15.958 34.501 19.984v-70.384z" fill="#ffe1ba"/><path d="m253.7 437.199c27.599-1.199 54-2.401 74.399 3.3 9.6 2.701 17.999 6.901 24.3 13.5l2.401 2.401 37.705-7.707 49.924-49.922 18.571-48.571-48.6-48.301c-19.499-19.799-46.5-30.899-74.099-30.899h-112.301c-33.137 0-60 26.862-60 60h101.8c25.201 0 48.6 9.6 66.301 27.299l-21.301 21.301c-11.999-12.001-27.9-18.6-45-18.6h-101.8v70.384c25.963 8.128 57.607 7.018 87.7 5.815z" fill="#ffbfab"/><path d="m0 60h331v30h-331z" fill="#474f54"/><path d="m166 60h165v30h-165z" fill="#32393f"/><path d="m512 406.099-106.199 105.901-51.001-55.6 106.2-106.2z" fill="#f03800"/></g></svg>