<svg xmlns="http://www.w3.org/2000/svg" viewBox="0 0 480.2 480.2"><path d="M243 199c-62-62-130-94-151-72-3 2-5 5-6 9v-1l-21 86-21 85-24 101-16 64 93-35 117-44 94-36c3-1 6-2 8-5 22-22-11-90-73-152z" fill="#dd1c4b"/><ellipse transform="rotate(-135 204 239)" cx="203.8" cy="239" rx="158.8" ry="56" fill="#d1e3ee"/><path d="M299 359c-11 0-22-2-32-6l-77 29-117 44-64 24-5 22 93-35 117-44 86-33-1-1z" fill="#b21d48"/><g fill="#ffbf41"><path d="M396 296l-3-1c-40-15-84-19-127-12l-29 5a8 8 0 01-2-16l28-5c46-7 93-3 136 13a8 8 0 01-3 16zM252 248a8 8 0 01-3-15l168-80a8 8 0 117 14l-168 80-4 1zM159 232l-4-1c-4-1-6-6-4-10l12-28c18-43 22-90 12-135a8 8 0 1115-4c11 49 7 99-12 145l-12 28c-1 3-4 5-7 5z"/></g><circle cx="436.1" cy="312" r="16" fill="#d5557e"/><circle cx="244.1" cy="88" r="16" fill="#dd95c1"/><path d="M172 32a16 16 0 110-32 16 16 0 010 32z" fill="#7fcccb"/><g fill="#2276bb"><path d="M396 64c-4 0-8-4-8-8v-8a8 8 0 0116 0v8c0 4-3 8-8 8zM396 24c-4 0-8-4-8-8V8a8 8 0 0116 0v8c0 4-3 8-8 8zM420 40h-8a8 8 0 010-16h8a8 8 0 010 16zM380 40h-8a8 8 0 010-16h8a8 8 0 010 16z"/></g><path d="M68 232l-3-10-21 85 2 19c3 42 21 81 50 111l118-44-2-1c-71-27-125-86-144-160z" fill="#fff"/><path d="M214 393l-2-1-22-10-106 40 13 15 117-44z" fill="#f6f6e7"/><path d="M340 96v40h-40V96h40z" fill="#c9da53"/><path d="M196 240a8 8 0 01-5-14l80-72a8 8 0 0110 12l-80 72-5 2z" fill="#ffbf41"/><g fill="#ffdb43"><path d="M428 208c-4 0-8-4-8-8v-8a8 8 0 0116 0v8c0 4-3 8-8 8zM456 196l-5-2-6-6a8 8 0 0111-11l6 6a8 8 0 01-6 13zM468 168h-8a8 8 0 010-16h8a8 8 0 010 16zM451 145a8 8 0 01-6-13l6-6a8 8 0 0111 11l-6 6c-1 2-3 2-5 2zM428 136c-4 0-8-4-8-8v-8a8 8 0 0116 0v8c0 4-3 8-8 8zM405 145c-2 0-4 0-5-2l-6-6a8 8 0 0111-11l6 6a8 8 0 01-6 13zM44 8l12 25 28 4-20 20 5 27-25-13-25 13 5-27L4 37l28-4L44 8z"/></g><path d="M474 433c-4-13-13-25-25-32l-3-5c-19-28-48-46-81-52a8 8 0 00-2 16c23 4 45 16 61 34-14 2-25 10-32 22a32 32 0 1056 31c3-6 5-13 5-20 8 12 9 28 2 41a8 8 0 1014 8c7-13 9-28 5-43zm-40 6a16 16 0 11-28-15c5-8 12-13 21-14l4 1c7 3 8 20 3 28z" fill="#2bb3ce"/></svg>