<svg xmlns="http://www.w3.org/2000/svg" viewBox="0 0 512 512"><linearGradient id="a" gradientUnits="userSpaceOnUse" x1="-43.788" y1="606.711" x2="18.322" y2="606.711" gradientTransform="matrix(8.5333 0 0 -8.5333 369.133 5433.267)"><stop offset="0" stop-color="#b24592"/><stop offset="1" stop-color="#f15f79"/></linearGradient><path d="M503.467 102.4h-25.6V68.267h-85.333V102.4h-384a8.536 8.536 0 00-8.533 8.533V435.2a8.536 8.536 0 008.533 8.533h494.933A8.536 8.536 0 00512 435.2V110.933a8.536 8.536 0 00-8.533-8.533zM409.6 85.333h51.2V102.4h-51.2V85.333zM17.067 426.667v-307.2h477.867v17.067H460.8V153.6h34.133v17.067H460.8v17.067h34.133v238.933H17.067z" fill="url(#a)"/><linearGradient id="b" gradientUnits="userSpaceOnUse" x1="-43.788" y1="615.711" x2="18.322" y2="615.711" gradientTransform="matrix(8.5333 0 0 -8.5333 369.133 5433.267)"><stop offset="0" stop-color="#b24592"/><stop offset="1" stop-color="#f15f79"/></linearGradient><path d="M42.667 221.867h119.467a8.536 8.536 0 008.533-8.533v-68.267a8.536 8.536 0 00-8.533-8.533H42.667a8.536 8.536 0 00-8.533 8.533v68.267c-.001 4.71 3.822 8.533 8.533 8.533zM51.2 153.6h102.4v51.2H51.2v-51.2z" fill="url(#b)"/><linearGradient id="c" gradientUnits="userSpaceOnUse" x1="-43.788" y1="604.711" x2="18.322" y2="604.711" gradientTransform="matrix(8.5333 0 0 -8.5333 369.133 5433.267)"><stop offset="0" stop-color="#b24592"/><stop offset="1" stop-color="#f15f79"/></linearGradient><path d="M307.2 153.6c-65.98 0-119.467 53.487-119.467 119.467S241.22 392.533 307.2 392.533s119.467-53.487 119.467-119.467S373.18 153.6 307.2 153.6zm0 221.867c-56.55 0-102.4-45.85-102.4-102.4s45.85-102.4 102.4-102.4 102.4 45.85 102.4 102.4-45.85 102.4-102.4 102.4z" fill="url(#c)"/><linearGradient id="d" gradientUnits="userSpaceOnUse" x1="-43.788" y1="604.711" x2="18.322" y2="604.711" gradientTransform="matrix(8.5333 0 0 -8.5333 369.133 5433.267)"><stop offset="0" stop-color="#b24592"/><stop offset="1" stop-color="#f15f79"/></linearGradient><path d="M307.2 187.733c-47.13 0-85.333 38.204-85.333 85.333S260.07 358.4 307.2 358.4s85.333-38.204 85.333-85.333-38.203-85.334-85.333-85.334zm0 153.6c-37.7 0-68.267-30.566-68.267-68.267S269.5 204.8 307.2 204.8s68.267 30.566 68.267 68.267-30.567 68.266-68.267 68.266z" fill="url(#d)"/><linearGradient id="e" gradientUnits="userSpaceOnUse" x1="-43.788" y1="607.211" x2="18.322" y2="607.211" gradientTransform="matrix(8.5333 0 0 -8.5333 369.133 5433.267)"><stop offset="0" stop-color="#b24592"/><stop offset="1" stop-color="#f15f79"/></linearGradient><path d="M307.2 221.867c-28.279 0-51.2 22.921-51.2 51.2a8.536 8.536 0 008.533 8.533 8.536 8.536 0 008.533-8.533c0-18.85 15.283-34.133 34.133-34.133 4.71 0 8.533-3.823 8.533-8.533s-3.822-8.534-8.532-8.534z" fill="url(#e)"/><linearGradient id="f" gradientUnits="userSpaceOnUse" x1="-43.788" y1="601.711" x2="18.322" y2="601.711" gradientTransform="matrix(8.5333 0 0 -8.5333 369.133 5433.267)"><stop offset="0" stop-color="#b24592"/><stop offset="1" stop-color="#f15f79"/></linearGradient><circle cx="162.133" cy="298.667" r="17.067" fill="url(#f)"/><linearGradient id="g" gradientUnits="userSpaceOnUse" x1="-43.788" y1="589.711" x2="18.322" y2="589.711" gradientTransform="matrix(8.5333 0 0 -8.5333 369.133 5433.267)"><stop offset="0" stop-color="#b24592"/><stop offset="1" stop-color="#f15f79"/></linearGradient><path fill="url(#g)" d="M34.133 392.533H51.2V409.6H34.133z"/><linearGradient id="h" gradientUnits="userSpaceOnUse" x1="-43.788" y1="589.711" x2="18.322" y2="589.711" gradientTransform="matrix(8.5333 0 0 -8.5333 369.133 5433.267)"><stop offset="0" stop-color="#b24592"/><stop offset="1" stop-color="#f15f79"/></linearGradient><path fill="url(#h)" d="M68.267 392.533H153.6V409.6H68.267z"/><linearGradient id="i" gradientUnits="userSpaceOnUse" x1="-43.788" y1="591.711" x2="18.322" y2="591.711" gradientTransform="matrix(8.5333 0 0 -8.5333 369.133 5433.267)"><stop offset="0" stop-color="#b24592"/><stop offset="1" stop-color="#f15f79"/></linearGradient><path d="M426.667 409.6h51.2v-51.2h-51.2v51.2zm17.066-34.133H460.8v17.067h-17.067v-17.067z" fill="url(#i)"/><linearGradient id="j" gradientUnits="userSpaceOnUse" x1="-43.788" y1="615.711" x2="18.322" y2="615.711" gradientTransform="matrix(8.5333 0 0 -8.5333 369.133 5433.267)"><stop offset="0" stop-color="#b24592"/><stop offset="1" stop-color="#f15f79"/></linearGradient><path fill="url(#j)" d="M68.267 170.667h17.067v17.067H68.267z"/></svg>