<svg xmlns="http://www.w3.org/2000/svg" xmlns:xlink="http://www.w3.org/1999/xlink" id="Capa_1" x="0" y="0" version="1.1" viewBox="0 0 512 512" xml:space="preserve" style="enable-background:new 0 0 512 512"><linearGradient id="SVGID_1_" x1="0" x2="512" y1="258" y2="258" gradientTransform="matrix(1 0 0 -1 0 514)" gradientUnits="userSpaceOnUse"><stop offset="0" style="stop-color:#00f2fe"/><stop offset=".021" style="stop-color:#03effe"/><stop offset=".293" style="stop-color:#24d2fe"/><stop offset=".554" style="stop-color:#3cbdfe"/><stop offset=".796" style="stop-color:#4ab0fe"/><stop offset="1" style="stop-color:#4facfe"/></linearGradient><path style="fill:url(#SVGID_1_)" d="M492,236H276V20c0-11.046-8.954-20-20-20s-20,8.954-20,20v216H20c-11.046,0-20,8.954-20,20	c0,11.046,8.954,20,20,20h216v216c0,11.046,8.954,20,20,20c11.046,0,20-8.954,20-20V276h216c11.046,0,20-8.954,20-20	S503.046,236,492,236z"/></svg>