<svg xmlns="http://www.w3.org/2000/svg" width="512" height="512" fill="none" viewBox="0 0 512 512"><g clip-path="url(#clip0)"><path fill="#fff" d="M336.709 74.843C326.387 70.899 314.829 76.062 310.884 86.38C306.939 96.696 312.104 108.259 322.42 112.204C393.115 139.239 442 207.384 442 286C442 388.561 358.561 472 256 472C153.439 472 70 388.561 70 286C70 207.341 118.908 139.234 189.573 112.207C199.89 108.261 205.054 96.698 201.109 86.382C197.162 76.065 185.597 70.902 175.284 74.846C89.185 107.777 30 190.692 30 286C30 410.922 131.09 512 256 512C380.922 512 482 410.91 482 286C482 190.65 422.778 107.759 336.709 74.843Z"/><path fill="#fff" d="M256 0C244.954 0 236 8.954 236 20V215.851C236 226.897 244.954 235.851 256 235.851C267.046 235.851 276 226.896 276 215.851V20C276 8.954 267.046 0 256 0Z"/></g><defs><clipPath id="clip0"><rect width="512" height="512" fill="#fff"/></clipPath></defs></svg>