<svg height="512pt" viewBox="-80 0 512 512.2" width="512pt" xmlns="http://www.w3.org/2000/svg"><path d="M92 219l-2-3-45-47c5-1 9-4 11-7 13-1 26-5 27-23 0-8-1-16-4-24h1c6 6 14 11 22 14 6 2 13 1 18-3 6-6 9-14 8-21l-2-21 6-4c6 8 15 13 24 18 5 2 11 2 15-2 5-3 9-9 11-14 2-8 3-15 2-23l4-2c5 8 13 14 21 17h9c4 0 7-2 9-4 8-8 13-17 15-28h2l23 76zm0 0" fill="#fdd834"/><path d="M56 162c-2 3-6 6-11 7l-5-6 1-3 15 2zm0 0" fill="#f3d55b"/><path d="M244 128L90 216l-45-47c5-1 9-4 11-7 13-1 26-5 27-23 0-8-1-16-4-24h1c6 6 14 11 22 14 6 2 13 1 18-3 6-6 9-14 8-21l-2-21 6-4c6 8 15 13 24 18 5 2 11 2 15-2 5-3 9-9 11-14 2-8 3-15 2-23l4-2c5 8 13 14 21 17h9c4 0 7-2 9-4zm0 0" fill="#ffeb3a"/><g fill="#fdd834"><path d="M137 68c0 5-2 9-5 12a17 17 0 01-12 5 17 17 0 1117-17zm0 0M85 102a17 17 0 01-6 13 17 17 0 116-13zm0 0M43 154a17 17 0 01-3 9 17 17 0 113-9zm0 0M196 43a17 17 0 01-12 16l-5 1a17 17 0 1117-17zm0 0M256 26a17 17 0 01-17 17 17 17 0 1117-17zm0 0"/></g><path d="M342 299c-34-31-32-85-30-108a102 102 0 01-37 3l-3-1-4 1-145 33 5 90c-7 6 20 34 15 38 2 19 2 39 0 58-3 33-28 22-29 32v1c2 4 16 1 34-1 13-1 25-1 37 2 19 6 53 34 77 48 16 10 27 13 25-2-4-33-37-59-46-65l-2-4v-29a4 4 0 016-4l30 9c11 2 22 3 26 0 11-8 1-28 20-49 11-13 19-27 24-43 1-3 0-7-3-9zm0 0" fill="#dfc49c"/><path d="M316 299c-32-29-32-80-30-105v-3l-11 2-7 1-145 33 5 90c-7 6 20 34 15 38 2 19 2 39 0 58-3 33-28 22-29 32v1c11-2 23-2 34-1 13-1 25-1 37 2 19 6 53 34 77 48l-1-2c-3-33-37-59-46-65l-1-4v-29a4 4 0 015-4l20 6c14 4 30 7 36 3 11-8 1-28 21-49 10-13 18-27 23-43 1-3 0-7-3-9zm0 0" fill="#ffe0b2"/><path d="M312 191a70 70 0 01-24 3l-16-1h-1l-2 11c-4 11-14 20-35 23l-7 1 1 3c2 4 2 9 2 14-1 10-7 20-30 21-11 0-21-1-31-3a95 95 0 00-2 17c0 15 5 29 29 20v4l-36 36c-5 6-11 11-17 15-7 7-17 10-27 10-19-2-20-32-20-32-54-15-11-50-11-50-38-31 7-64 7-64 47-36 97-66 150-91l25-10s59-5 65 40a27 27 0 01-20 33zm0 0" fill="#cfd8dc"/><path d="M299 194c-4 3-9 6-13 7a72 72 0 01-24 3l-16-1h-1a32 32 0 01-17 28c-8 4-18 6-27 7 2 5 3 11 3 17 0 4-2 8-4 11-5 6-15 11-33 10-7 0 5 7-5 6v8c-1 5 9-6 9 0 0 15-4 18 21 9v15l-55 44c-7 7-15 3-20 7h-1c-19-2-20-32-20-32-54-15-11-50-11-50-38-31 7-64 7-64 47-36 97-66 150-91 10 0 58 0 64 40 2 10-1 19-7 26zm0 0M213 341a17 17 0 11-34 0 17 17 0 0134 0zm0 0" fill="#f5f5f5"/><path d="M281 512c-11 0-27-11-52-28-17-12-35-25-46-28-16-4-32-4-48-1-13 2-21 3-26-2-3-2-4-6-4-9 1-10 10-12 15-13 7-2 13-4 15-19v-56a9 9 0 0117-2v60c-1 8-4 16-9 23 15-2 30-1 44 2 14 4 33 18 52 31 12 9 26 18 40 25v-1c-4-27-31-51-43-60-4-2-5-6-5-10v-29a13 13 0 0117-12c29 10 45 12 48 10 2-1 2-4 3-11 1-14 7-27 16-37 10-12 17-25 22-40-37-33-36-91-34-115a9 9 0 1117 2c-2 21-3 73 28 101 5 4 7 11 5 17-5 17-14 33-26 46-6 8-10 18-11 28 0 9-4 17-10 23-3 2-13 10-58-6v21c17 13 44 39 48 70 1 7-1 14-7 18-2 2-5 2-8 2zm0 0"/><path d="M118 374l-9-2c-15-6-19-23-21-32-16-6-25-14-27-25-1-12 3-24 12-32-7-7-12-18-12-28 1-25 25-42 26-43a692 692 0 01179-102c23-2 69 5 75 47 2 12-1 24-10 32-18 19-56 13-60 12a9 9 0 112-16c10 1 36 3 46-8 5-5 6-11 5-17-5-35-48-34-55-33-9 3-81 30-171 98-6 4-19 17-19 30 0 9 5 17 12 22a9 9 0 010 13c-5 4-15 14-13 22 1 5 8 10 20 13 4 1 6 4 7 8 0 6 3 20 10 23 4 2 15 2 39-22a9 9 0 0112 12c-19 19-34 28-48 28zm0 0"/><path d="M220 236h-9a9 9 0 111-17c24 1 39-3 46-13 9-13 1-32 1-33a9 9 0 0116-6c0 1 12 28-3 49-9 14-27 20-52 20zm0 0"/><path d="M197 275a153 153 0 01-46-7 9 9 0 114-17l16 4c33 6 44 1 48-4 5-6 2-16 0-20a9 9 0 1116-6c3 8 7 25-3 37-7 9-19 13-35 13zm0 0"/><path d="M183 311c-5 1-10-1-15-4-12-10-10-30-7-45a9 9 0 1117 3c-4 16-2 26 1 28 1 1 6 4 22-4a9 9 0 017 15c-7 4-16 7-25 7zm0 0M109 138c-14-1-26-7-35-17a9 9 0 1112-12c5 4 20 18 29 10 5-5 6-17 2-33a9 9 0 1117-4c6 24 3 41-8 50-5 4-11 6-17 6zm0 0"/><path d="M55 170l-15-2a9 9 0 013-16c13 2 24 1 28-4 5-5 5-15 0-30v-3a9 9 0 0117-2c6 21 5 37-4 46-8 8-18 12-29 11zm0 0M163 108c-9 0-21-6-37-22a9 9 0 0112-12c13 13 24 19 28 16 10-8 10-24 10-31a9 9 0 0117 0c0 11-1 32-16 44-4 3-9 5-14 5zm0 0M267 127c-4 0-7-3-8-6l-23-77a9 9 0 1117-5l22 77a9 9 0 01-8 11zm0 0"/><path d="M214 83c-9 0-21-4-33-21a9 9 0 1114-10c4 6 13 16 21 14 11-2 16-20 18-26a9 9 0 1116 4c-3 13-11 34-30 39h-6zm0 0M92 227l-6-2-52-56a9 9 0 1112-12l53 56a9 9 0 01-7 14zm0 0M120 94a26 26 0 110-51 26 26 0 010 51zm0-34a9 9 0 100 17 9 9 0 000-17zm0 0M68 128a26 26 0 110-51 26 26 0 010 51zm0-34a9 9 0 100 17 9 9 0 000-17zm0 0"/><path d="M26 179a26 26 0 110-51 26 26 0 010 51zm0-34a9 9 0 100 17 9 9 0 000-17zm0 0M179 68a26 26 0 110-51 26 26 0 010 51zm0-34a9 9 0 100 17 9 9 0 000-17zm0 0M239 51a26 26 0 110-51 26 26 0 010 51zm0-34a9 9 0 100 17 9 9 0 000-17zm0 0M196 333c-4 0-8-4-8-9v-24a9 9 0 0117 0v24c0 5-4 9-9 9zm0 0"/><path d="M196 367a26 26 0 110-51 26 26 0 010 51zm0-34a9 9 0 100 17 9 9 0 000-17zm0 0"/></svg>