<svg height="512pt" viewBox="-82 0 512 512.1" width="512pt" xmlns="http://www.w3.org/2000/svg"><path d="M87 217l-55-57 2-3c16 3 56 6 39-46l1-1c7 6 26 24 42 11 10-9 8-28 5-43 2-1 5-2 6-4 12 12 30 26 42 17 12-10 13-28 13-39l4-2c6 9 17 21 31 18 15-3 22-23 24-33l3-1 23 80zm0 0" fill="#f3d55b"/><g fill="#e4c05c"><path d="M132 62c1 4-1 9-5 12a17 17 0 01-12 5 18 18 0 1117-17zm0 0M80 97a18 18 0 01-7 14 18 18 0 117-14zm0 0M35 150a17 17 0 01-3 10 18 18 0 113-10zm0 0M194 35a18 18 0 01-12 17l-5 1a18 18 0 1117-18zm0 0M256 18a18 18 0 01-18 17 18 18 0 1118-17zm0 0"/></g><path d="M123 319c-6 7 21 36 16 39 2 20 2 41 0 61-3 33-29 22-30 32-1 11 40-7 74 3 33 10 110 86 105 47-4-34-39-61-48-68l-1-3v-30a4 4 0 015-4c14 5 49 16 58 9 12-9 2-29 21-51 11-13 20-28 25-44 1-4 0-7-3-10-35-31-34-88-31-111-14 3-28 4-41 2l-155 35zm0 0" fill="#fdd7ad"/><path d="M314 189a114 114 0 01-41 2h-2c0 16-9 33-45 36 2 5 3 11 3 17-1 15-13 29-63 20l-2 17c0 15 5 30 30 21v4l-37 37-18 15c-46 34-48-22-48-22-56-16-11-52-11-52-40-32 7-67 7-67 103-77 180-103 180-103s61-6 68 41a28 28 0 01-21 34zm0 0" fill="#d1d4d1"/><path d="M229 244a296 296 0 01-32 0 9 9 0 011-18l28 1c2 5 3 11 3 17zm0 0M289 192l-16-1h-2c0-9-2-17-5-25a9 9 0 1116-7c5 10 7 22 7 33zm0 0M166 264l-2 17-37-8a9 9 0 015-17l34 8zm0 0" fill="#bdc3c7"/><path d="M194 335c-5 0-9-4-9-8v-21a9 9 0 0118 0v21c0 4-4 8-9 8zm0 0" fill="#f9eab0"/><path d="M212 344a18 18 0 11-35 0 18 18 0 0135 0zm0 0" fill="#fff"/></svg>