<svg id="Layer_1" enable-background="new 0 0 512 512" height="512" viewBox="0 0 512 512" width="512" xmlns="http://www.w3.org/2000/svg"><g><g id="XMLID_372_"><g><g id="XMLID_1223_"><g id="XMLID_1239_"><g id="XMLID_1240_"><g id="XMLID_1241_"><g id="XMLID_1242_"><g id="XMLID_1243_"><g id="XMLID_1319_"><g id="XMLID_1419_"><g id="XMLID_1420_"><g id="XMLID_1422_"><g id="XMLID_1445_"><g id="XMLID_1447_"><g id="XMLID_1450_"><g id="XMLID_1451_"><circle cx="256" cy="256" fill="#5eefee" r="256"/></g></g></g></g></g></g></g></g></g></g></g></g></g></g></g></g><path d="m512 256c0-15.242-1.339-30.171-3.893-44.681l-107.344-107.344-131.43 187.953-173.101 11.116 47.07 47.07-48.851 46.75 109.928 109.928c16.673 3.415 33.938 5.208 51.621 5.208 141.385 0 256-114.615 256-256z" fill="#54c9fc"/><g><g><ellipse cx="291.4" cy="208.619" fill="#fff" rx="151.365" ry="151.365" transform="matrix(.707 -.707 .707 .707 -62.167 267.154)"/><path d="m442.762 208.619c0 83.595-67.767 151.362-151.362 151.362v-302.724c83.595 0 151.362 67.767 151.362 151.362z" fill="#eae1dc"/></g><g><g><ellipse cx="291.4" cy="208.619" fill="#ff807d" rx="111.865" ry="111.865" transform="matrix(.707 -.707 .707 .707 -62.167 267.154)"/><path d="m403.263 208.619c0 61.78-50.082 111.863-111.863 111.863v-223.726c61.78 0 111.863 50.082 111.863 111.863z" fill="#fc3e53"/></g><g><ellipse cx="291.397" cy="268.042" fill="#fff" rx="10.675" ry="10.675" transform="matrix(.973 -.23 .23 .973 -53.789 74.12)"/><g><g><path d="m302.066 268.041c0 5.903-4.776 10.678-10.666 10.678v-21.357c5.891.001 10.666 4.789 10.666 10.679z" fill="#eae1dc"/></g></g><path d="m327.715 172.969c-.983-18.929-16.608-34.057-35.573-34.439-18.395-.358-34.221 13.085-36.762 31.297-.233 1.664-.351 3.367-.351 5.063h19.001c0-.818.056-1.637.168-2.433 1.196-8.573 8.56-14.934 17.205-14.934.118 0 .237.001.356.003 9.053.183 16.512 7.399 16.981 16.428.25 4.822-1.437 9.4-4.75 12.889-3.315 3.492-7.788 5.416-12.594 5.416h-9.5v37.595h19.001v-19.869c6.383-1.737 12.259-5.198 16.873-10.058 6.937-7.306 10.469-16.88 9.945-26.958z" fill="#fff"/><path d="m317.774 199.929c-4.611 4.852-10.488 8.322-16.873 10.058v19.862h-9.5v-37.597c4.801 0 9.272-1.913 12.591-5.409 3.306-3.496 5.004-8.069 4.75-12.895-.469-9.019-7.93-16.239-16.987-16.417-.114-.013-.228-.013-.355-.013v-19.001c.241 0 .494.013.747.013 18.963.38 34.582 15.505 35.57 34.442.52 10.072-3.014 19.648-9.943 26.957z" fill="#eae1dc"/></g></g><path d="m188.271 395.084 54.024-146.064-146.063 54.024 33.427 33.427-35.208 35.209c-6.955 6.955-6.955 18.231 0 25.185 6.955 6.955 18.231 6.955 25.185 0l35.208-35.208z" fill="#776d6b"/><path d="m242.295 249.018-2.14 5.79-28.99 78.39-22.89 61.89-22.51-22.51v-95.25l74.39-27.52z" fill="#57555c"/></g></g></svg>