<svg xmlns="http://www.w3.org/2000/svg" height="512pt" viewBox="0 0 512 512" width="512pt"><path d="M177 51c-1-5-6-9-12-10l-31-5-14-28c-3-5-9-8-14-8S95 3 93 8L78 36l-31 5a15 15 0 00-8 26l22 22-5 31c-1 6 1 12 6 15 5 4 11 4 16 1l28-15 28 15c11 6 24-3 22-16l-5-31 23-22c4-4 5-10 3-16zm0 0M387 51c-1-5-6-9-12-10l-31-5-14-28c-3-5-9-8-14-8s-11 3-13 8l-15 28-31 5c-6 1-11 5-12 10-2 6-1 12 4 16l22 22-5 31c-1 6 1 12 6 15 4 4 11 4 16 1l28-15 28 15 7 2 9-3c5-3 7-9 6-15l-5-31 23-22c4-4 5-10 3-16zm0 0M499 192l-31-5-14-28c-3-5-9-8-14-8s-11 3-13 8l-15 28-31 5a15 15 0 00-8 26l22 22-5 31c-2 13 11 22 22 16l28-15 28 15c11 6 24-3 22-16l-5-31 22-22c9-9 4-24-8-26zm0 0" fill="#ffd400"/><path d="M326 376c19 0 34 15 34 34s-15 34-34 34h-30c19 0 34 15 34 34 0 18-15 33-34 33h-94c-45 0-90-10-130-30L31 378l1-2 40-105 35-17c58-29 71-72 74-96-1-6 2-12 7-16 4-4 10-6 16-5 29 5 51 29 51 59 0 17-6 33-16 45h87c19 0 34 15 34 34s-15 34-34 34c19 0 34 15 34 34 0 18-15 33-34 33zm0 0" fill="#ffbfab"/><path d="M177 51c2 6 1 12-3 16l-23 22 5 31c2 13-11 22-22 16l-28-15V0c5 0 11 3 14 8l14 28 31 5c6 1 11 5 12 10zm0 0M387 51c2 6 1 12-3 16l-23 22 5 31a15 15 0 01-15 18l-7-2-28-15V0c5 0 11 3 14 8l14 28 31 5c6 1 11 5 12 10zm0 0M507 218l-22 22 5 31c2 13-11 22-22 16l-28-15V151c5 0 11 3 14 8l14 28 31 5c12 2 17 17 8 26zm0 0" fill="#fdbf00"/><path d="M326 444h-30c19 0 34 15 34 34 0 18-15 33-34 33h-94c-45 0-90-10-130-30L31 378l1-2h294c19 0 34 15 34 34s-15 34-34 34zm0 0" fill="#ffa78f"/><path d="M72 271v210H15c-8 0-15-6-15-15V286c0-8 7-15 15-15h56zm0 0" fill="#725d57"/><path d="M72 376v105H15c-8 0-15-6-15-15v-90zm0 0" fill="#68544f"/></svg>