<svg xmlns="http://www.w3.org/2000/svg" width="110" height="110" fill="none" viewBox="0 0 110 110"><g clip-path="url(#clip0)"><path fill="#fff" d="M109.329 53.3797L74.9536 19.0046C74.0584 18.1094 72.6082 18.1094 71.7131 19.0046C70.8179 19.8999 70.8179 21.3501 71.7131 22.2451L102.176 52.7083H2.29174C1.02502 52.7083 0 53.7333 0 55C0 56.2667 1.02502 57.2917 2.29174 57.2917H102.176L71.7131 87.7547C70.8179 88.6499 70.8179 90.1001 71.7131 90.9951C72.1606 91.4427 72.7472 91.6665 73.3335 91.6665C73.9198 91.6665 74.5061 91.4427 74.9538 90.9951L109.329 56.6201C110.224 55.7251 110.224 54.2749 109.329 53.3797Z"/></g><defs><clipPath id="clip0"><rect width="110" height="110" fill="#fff"/></clipPath></defs></svg>