<svg xmlns="http://www.w3.org/2000/svg" viewBox="0 0 512 512"><path d="M507 297a174 174 0 00-176-132c-18-38-49-69-88-86a8 8 0 00-6 14 158 158 0 0192 115 158 158 0 01-104 181 123 123 0 01-5-13l-1-1-1-4c67-23 107-92 92-161a139 139 0 00-12-34 140 140 0 00-108-76l54-50c3-2 4-6 2-9l-1-1-24-37c-2-2-4-3-7-3h-80c-3 0-5 1-7 3l-25 38c-2 3-1 7 1 9l54 50A139 139 0 0039 272a140 140 0 00130 106 193 193 0 002 6v1a174 174 0 004 12 159 159 0 01-64-304 8 8 0 00-6-14 174 174 0 0076 333 174 174 0 00198 95c93-23 150-117 128-210zm-185 32c21-35 29-75 24-114a125 125 0 01113 94 124 124 0 01-227 93c37-13 69-39 90-73zm-107 27a123 123 0 0182-134c8 58-26 114-82 134zM138 15h72l15 22H123l15-22zm-10 37h92l-46 43-46-43zm38 310a125 125 0 01-113-94 124 124 0 01227-93 173 173 0 00-114 187zm210 130a158 158 0 01-184-92l-1-2v-1l-1-2-1-3-1-3-1-3v-1l-1-3v-1l-1-2a157 157 0 01-1-6l-1-2v-1-1a157 157 0 01104-180l7 18a138 138 0 00-92 160 141 141 0 002 8v1l1 3v1a147 147 0 002 7 138 138 0 00164 87 139 139 0 00-28-275 140 140 0 00-6-19 159 159 0 0139 312z"/></svg>