<?xml version="1.0" encoding="iso-8859-1"?>
<!-- Generator: Adobe Illustrator 19.0.0, SVG Export Plug-In . SVG Version: 6.00 Build 0)  -->
<svg version="1.1" id="Capa_1" xmlns="http://www.w3.org/2000/svg" xmlns:xlink="http://www.w3.org/1999/xlink" x="0px" y="0px"
	 viewBox="0 0 417.959 417.959" style="enable-background:new 0 0 417.959 417.959;" xml:space="preserve">
<g>
	<path style="fill:#4DCFE0;" d="M391.837,94.041h-104.49v292.571h104.49c14.629,0,26.122-11.494,26.122-26.122V120.163
		C417.959,105.535,406.465,94.041,391.837,94.041z"/>
	<path style="fill:#4DCFE0;" d="M125.388,94.041H26.122C11.494,94.041,0,105.535,0,120.163V360.49
		c0,14.629,11.494,26.122,26.122,26.122h99.265V94.041z"/>
	<rect x="146.286" y="94.041" style="fill:#4DCFE0;" width="120.163" height="292.571"/>
</g>
<path style="fill:#3A2C51;" d="M292.571,94.041V67.918c0-20.376-16.196-36.571-36.571-36.571h-99.265
	c-20.376,0-36.571,16.196-36.571,36.571v26.122v292.571h31.347V94.041V67.918c0-2.612,2.612-5.224,5.224-5.224H256
	c2.612,0,5.224,2.612,5.224,5.224v26.122v292.571h31.347V94.041z"/>
<g>
</g>
<g>
</g>
<g>
</g>
<g>
</g>
<g>
</g>
<g>
</g>
<g>
</g>
<g>
</g>
<g>
</g>
<g>
</g>
<g>
</g>
<g>
</g>
<g>
</g>
<g>
</g>
<g>
</g>
</svg>
