<svg xmlns="http://www.w3.org/2000/svg" xmlns:xlink="http://www.w3.org/1999/xlink" id="Capa_1" x="0" y="0" version="1.1" viewBox="0 0 512 512" xml:space="preserve" style="enable-background:new 0 0 512 512"><g><rect style="fill:#75462e" width="17.655" height="97.103" x="88.276" y="26.483"/><rect style="fill:#75462e" width="17.655" height="97.103" x="158.897" y="26.483"/></g><g><rect style="fill:#5e3825" width="17.655" height="26.483" x="88.276" y="26.483"/><rect style="fill:#5e3825" width="17.655" height="26.483" x="158.897" y="26.483"/></g><g><path style="fill:#4398d1" d="M79.448,0h105.931c9.754,0,17.655,7.901,17.655,17.655l0,0c0,9.754-7.901,17.655-17.655,17.655 H79.448c-9.754,0-17.655-7.901-17.655-17.655l0,0C61.793,7.901,69.694,0,79.448,0z"/><path style="fill:#4398d1" d="M35.31,114.759h194.207c19.5,0,35.31,15.81,35.31,35.31v282.483c0,19.5-15.81,35.31-35.31,35.31 H35.31c-19.5,0-35.31-15.81-35.31-35.31V150.069C0,130.569,15.81,114.759,35.31,114.759z"/></g><g><path style="fill:#3e8cc7" d="M238.592,116.083C200.978,312.09,73.34,397.409,0,430.936v1.615c0,19.5,15.81,35.31,35.31,35.31 h194.207c19.5,0,35.31-15.81,35.31-35.31V150.069C264.801,134.1,254.031,120.152,238.592,116.083z"/><circle style="fill:#3e8cc7" cx="30.897" cy="489.931" r="22.069"/></g><g><rect style="fill:#126099" width="17.655" height="256" x="97.103" y="158.897"/><rect style="fill:#126099" width="17.655" height="256" x="44.138" y="158.897"/><rect style="fill:#126099" width="17.655" height="256" x="150.069" y="158.897"/><rect style="fill:#126099" width="17.655" height="256" x="203.034" y="158.897"/></g><circle style="fill:#3e8cc7" cx="233.931" cy="489.931" r="22.069"/><path style="fill:#de4c3c" d="M512,256v176.552c0,19.5-15.81,35.31-35.31,35.31H167.724c-19.5,0-35.31-15.81-35.31-35.31V256	c0-19.5,15.81-35.31,35.31-35.31H476.69C496.19,220.69,512,236.5,512,256z"/><path style="fill:#75462e" d="M397.241,220.69v-35.31c0-19.5-15.81-35.31-35.31-35.31h-79.448c-19.5,0-35.31,15.81-35.31,35.31	v35.31h35.31v-35.31h79.448v35.31H397.241z"/><g><circle style="fill:#de4c3c" cx="163.31" cy="489.931" r="22.069"/><circle style="fill:#de4c3c" cx="481.103" cy="489.931" r="22.069"/></g><polygon style="fill:#87ced9" points="79.448 238.345 0 273.655 0 220.69 61.793 194.207"/><path style="fill:#cf4737" d="M497.655,227.752c-63.691,126.764-241.761,206.777-330.814,240.022c0.3,0,0.583,0.088,0.883,0.088	H476.69c19.5,0,35.31-15.81,35.31-35.31V256C511.974,244.842,506.65,234.355,497.655,227.752z"/><polygon style="fill:#3e8cc7" points="264.828 317.793 308.966 256 353.103 317.793"/><g><rect style="fill:#75462e" width="35.31" height="247.172" x="176.552" y="220.69"/><rect style="fill:#75462e" width="35.31" height="247.172" x="432.552" y="220.69"/></g><ellipse style="fill:#87ced9" cx="433.08" cy="380.716" rx="44.121" ry="35.293" transform="matrix(-0.9504 -0.3111 0.3111 -0.9504 726.2316 877.2692)"/><polygon style="fill:#fdb62f" points="132.414 300.138 132.414 344.276 220.69 397.241 238.345 361.931"/><path style="fill:#71c4d1" d="M461.471,356.484c-16.322,19.156-36.467,34.684-59.145,45.594	c5.676,5.464,12.517,9.578,20.012,12.023c23.172,7.583,46.866-1.289,52.966-19.827C478.958,380.028,473.459,365.003,461.471,356.484	z"/></svg>