<svg id="Capa_1" enable-background="new 0 0 511.821 511.821" height="512" viewBox="0 0 511.821 511.821" width="512" xmlns="http://www.w3.org/2000/svg"><g><path d="m390.911 76.821v195l-120 210h-30l-120-210v-180z" fill="#deecf1"/><path d="m390.911 76.821v195l-120 210h-15v-397.5z" fill="#c6e2e7"/><path d="m480.911 256.821c0 95.099-194.099 236.4-216.301 252.299-.298 0-.599 0-.899.3-2.401 1.5-5.099 2.401-7.8 2.401s-5.4-.901-7.8-2.401c-.3-.3-.601-.3-.899-.3-22.202-15.899-216.301-157.2-216.301-252.299 0-8.401 6.599-15 15-15h21.599c-13.799-31.199-36.599-90-36.599-135 0-5.099 2.401-9.6 6.599-12.599l90-60c4.801-3.001 10.501-3.301 15.601-.601 4.801 2.701 7.8 7.8 7.8 13.2v90c0 95.4 24.901 189.6 72.299 272.701l32.701 56.999 32.701-56.999c47.399-83.101 72.299-177.301 72.299-272.701v-90c0-5.4 2.999-10.499 7.8-13.2 5.099-2.701 10.8-2.401 15.601.601l90 60c4.199 2.999 6.599 7.5 6.599 12.599 0 45-22.8 103.801-36.599 135h21.599c8.4 0 15 6.599 15 15z" fill="#453d83"/><path d="m480.911 256.821c0 95.099-194.099 236.4-216.301 252.299-.298 0-.599 0-.899.3-2.401 1.5-5.099 2.401-7.8 2.401v-45.3l32.701-56.999c47.399-83.101 72.299-177.301 72.299-272.701v-90c0-5.4 2.999-10.499 7.8-13.2 5.099-2.701 10.8-2.401 15.601.601l90 60c4.199 2.999 6.599 7.5 6.599 12.599 0 45-22.8 103.801-36.599 135h21.599c8.4 0 15 6.599 15 15z" fill="#2d2755"/><g><g><g><circle cx="255.911" cy="166.821" fill="#453d83" r="15"/></g></g></g><g><circle cx="255.911" cy="226.821" fill="#453d83" r="15"/></g><g><g><g><circle cx="255.911" cy="286.821" fill="#453d83" r="15"/></g></g></g><g><g><g><circle cx="255.911" cy="346.821" fill="#453d83" r="15"/></g></g></g><g fill="#2d2755"><path d="m270.911 346.821c0 8.401-6.599 15-15 15v-30c8.4 0 15 6.599 15 15z"/><path d="m270.911 286.821c0 8.401-6.599 15-15 15v-30c8.4 0 15 6.599 15 15z"/><path d="m270.911 226.821c0 8.401-6.599 15-15 15v-30c8.4 0 15 6.599 15 15z"/><path d="m270.911 166.821c0 8.401-6.599 15-15 15v-30c8.4 0 15 6.599 15 15z"/></g><g><g><g><g><path d="m285.911 31.821h-60c-8.401 0-15 6.599-15 15v60c0 8.401 6.599 15 15 15h60c8.401 0 15-6.599 15-15v-60c0-8.401-6.6-15-15-15z" fill="#c331c8"/></g></g></g></g><path d="m300.911 46.821v60c0 8.401-6.599 15-15 15h-30v-90h30c8.4 0 15 6.599 15 15z" fill="#a5007c"/><path d="m225.911 31.821c-21.594-21.292-52.712-32.371-80.991-31.8l-9.243-.01c-8.188.132-14.766 8.621-14.766 16.81v120c0 8.188 6.577 14.868 14.766 15l9.243.19c4.922.103 9.932.22 14.971.22 23.862 0 48.192-12.883 66.021-30.41v-90z" fill="#ff7cb8"/><path d="m376.145.011-9.243.01c-28.266-.571-59.399 10.516-80.991 31.8v90c17.829 17.532 42.158 30.41 66.021 30.41 5.039 0 10.049-.117 14.971-.22l9.243-.19c8.188-.132 14.766-6.812 14.766-15v-120c-.001-8.188-6.579-16.678-14.767-16.81z" fill="#c331c8"/></g></svg>