<svg height="512" viewBox="0 0 512 512" width="512" xmlns="http://www.w3.org/2000/svg"><g id="Flat"><path d="m160 184h-136v304h96a48 48 0 0 0 48-48v-88h48z" fill="#fec9a3"/><path d="m168 432h-8a48 48 0 0 1 -48-48h56z" fill="#f35244"/><path d="m100 304a36.04 36.04 0 0 1 -36-36v-4h16v4a20 20 0 0 0 40 0v-4h16v4a36.04 36.04 0 0 1 -36 36z" fill="#f7ad7c"/><path d="m209.7 117.8-14.9-29.8-23.466 17.6a32 32 0 0 1 -19.2 6.4h-128.134v144l56-72h88.793a45.739 45.739 0 0 0 42.589-29.058 45.737 45.737 0 0 0 -1.682-37.142z" fill="#ffb531"/><path d="m296 56v96a32 32 0 0 1 -32 32h-48l-64 56v-56h-96a32 32 0 0 1 -32-32v-96a32 32 0 0 1 32-32h208a32 32 0 0 1 32 32z" fill="#348fd9"/><path d="m296 56v96a32 32 0 0 1 -32 32h-48l-64 56v-56h-93.24c79.6-29.42 151.75-79.82 202.67-160h2.57a32 32 0 0 1 32 32z" fill="#3086cd"/><g fill="#62a9e6"><path d="m56 56h72v16h-72z"/><path d="m144 56h120v16h-120z"/><path d="m56 96h208v16h-208z"/><path d="m168 136h96v16h-96z"/><path d="m56 136h96v16h-96z"/></g><path d="m240 432v-28a20 20 0 0 0 -20-20 20 20 0 0 0 -20 20v84h80v-32a24 24 0 0 0 -24-24z" fill="#fec9a3"/><path d="m488 488h-96a48 48 0 0 1 -48-48v-88h-48l56-160h136z" fill="#fec9a3"/><path d="m352 80h136v112h-136z" fill="#404f66"/><path d="m488 88v52.21l-32 11.79-104-34.67v-29.33z" fill="#374357"/><circle cx="416" cy="280" fill="#92563a" r="24"/><path d="m398.343 374.343a59.89 59.89 0 0 1 -42.627 17.657h-11.716v16h11.716a75.785 75.785 0 0 0 53.941-22.343z" fill="#f7ad7c"/><path d="m488 34.105-32-10.105-168 48 168 56 32-11.79z" fill="#485870"/><circle cx="456" cy="72" fill="#556a8a" r="16"/></g></svg>