<svg height="512" viewBox="0 0 64 64" width="512" xmlns="http://www.w3.org/2000/svg"><g id="Layer_12" data-name="Layer 12"><rect fill="#a0a8b2" height="40" rx="4" width="60" x="2" y="8"/><path d="m6 12h52v32h-52z" fill="#c7e2fb"/><path d="m6 12v27.37a41.23 41.23 0 0 0 11.5 1.63c19 0 34.61-12.73 36.34-29z" fill="#ebf7fe"/><circle cx="32" cy="14" fill="#4472b0" r="12"/><path d="m25 48h14v8h-14z" fill="#c1c8d1"/><path d="m23 56h18a4 4 0 0 1 4 4v2a0 0 0 0 1 0 0h-26a0 0 0 0 1 0 0v-2a4 4 0 0 1 4-4z" fill="#a0a8b2"/><path d="m36.25 21.68a9.24 9.24 0 0 1 2.93 1.92 11.79 11.79 0 0 0 1.5-1.33 11.33 11.33 0 0 0 -3.68-2.44 17.76 17.76 0 0 0 1-4.83h6c0-.33 0-.66 0-1s0-.67 0-1h-6a17.76 17.76 0 0 0 -1-4.83 11.33 11.33 0 0 0 3.67-2.44 11.79 11.79 0 0 0 -1.5-1.33 9.24 9.24 0 0 1 -2.93 1.92 17.8 17.8 0 0 0 -2.8-4.22 10.56 10.56 0 0 0 -2.9 0 17.8 17.8 0 0 0 -2.8 4.22 9.24 9.24 0 0 1 -2.92-1.92 11.79 11.79 0 0 0 -1.5 1.33 11.33 11.33 0 0 0 3.68 2.44 17.76 17.76 0 0 0 -.95 4.83h-6c0 .33-.05.66-.05 1s0 .67.05 1h6a17.9 17.9 0 0 0 .95 4.83 11.33 11.33 0 0 0 -3.67 2.44 11.88 11.88 0 0 0 1.5 1.33 9.24 9.24 0 0 1 2.93-1.92 18 18 0 0 0 2.81 4.23 13.57 13.57 0 0 0 1.43.09 11.64 11.64 0 0 0 1.45-.1 17.8 17.8 0 0 0 2.8-4.22zm-5.25 1.59a15.55 15.55 0 0 1 -1.3-2.13 8.07 8.07 0 0 1 1.3-.14zm0-4.27a11.36 11.36 0 0 0 -2.1.24 16 16 0 0 1 -.85-4.24h2.95zm0-6h-2.95a16 16 0 0 1 .85-4.25 11.36 11.36 0 0 0 2.1.25zm0-6a9.39 9.39 0 0 1 -1.3-.13 15.55 15.55 0 0 1 1.3-2.14zm2-2.26a15.55 15.55 0 0 1 1.3 2.13 9.39 9.39 0 0 1 -1.3.13zm0 4.26a11.36 11.36 0 0 0 2.1-.24 16 16 0 0 1 .9 4.24h-3zm0 6h3a16 16 0 0 1 -.85 4.25 11.36 11.36 0 0 0 -2.15-.25zm0 6a9.39 9.39 0 0 1 1.3.13 17.21 17.21 0 0 1 -1.3 2.13z" fill="#698ec0"/><g fill="#a0a8b2"><path d="m21 34.51-3.15-5a1 1 0 0 0 -1.13-.51 1 1 0 0 0 -.72 1v9h2v-5.51l3.15 5a1 1 0 0 0 .85.51 1 1 0 0 0 .28 0 1 1 0 0 0 .72-1v-9h-2z"/><path d="m25 30v8a1 1 0 0 0 1 1h4v-2h-3v-2h3v-2h-3v-2h3v-2h-4a1 1 0 0 0 -1 1z"/><path d="m38 35-1.2-1.6a1 1 0 0 0 -1.6 0l-1.2 1.6v-6h-2v9a1 1 0 0 0 .68 1 1 1 0 0 0 1.12-.35l2.2-2.98 2.2 2.93a1 1 0 0 0 .8.4 1.19 1.19 0 0 0 .32 0 1 1 0 0 0 .68-1v-9h-2z"/><path d="m45 31h3v-2h-3a3 3 0 0 0 0 6 1 1 0 0 1 0 2h-3v2h3a3 3 0 0 0 0-6 1 1 0 0 1 0-2z"/></g></g></svg>